<svg xmlns="http://www.w3.org/2000/svg" viewBox="0 0 500 500"><g id="freepik--background-complete--inject-65"><rect y="382.4" width="500" height="0.25" style="fill:#ebebeb"></rect><rect x="416.78" y="398.49" width="33.12" height="0.25" style="fill:#ebebeb"></rect><rect x="322.53" y="401.21" width="8.69" height="0.25" style="fill:#ebebeb"></rect><rect x="396.59" y="389.21" width="19.19" height="0.25" style="fill:#ebebeb"></rect><rect x="52.46" y="390.89" width="43.19" height="0.25" style="fill:#ebebeb"></rect><rect x="104.56" y="390.89" width="6.33" height="0.25" style="fill:#ebebeb"></rect><rect x="131.47" y="395.11" width="93.68" height="0.25" style="fill:#ebebeb"></rect><path d="M237,337.8H43.91a5.71,5.71,0,0,1-5.7-5.71V60.66A5.71,5.71,0,0,1,43.91,55H237a5.71,5.71,0,0,1,5.71,5.71V332.09A5.71,5.71,0,0,1,237,337.8ZM43.91,55.2a5.46,5.46,0,0,0-5.45,5.46V332.09a5.46,5.46,0,0,0,5.45,5.46H237a5.47,5.47,0,0,0,5.46-5.46V60.66A5.47,5.47,0,0,0,237,55.2Z" style="fill:#ebebeb"></path><path d="M453.31,337.8H260.21a5.72,5.72,0,0,1-5.71-5.71V60.66A5.72,5.72,0,0,1,260.21,55h193.1A5.71,5.71,0,0,1,459,60.66V332.09A5.71,5.71,0,0,1,453.31,337.8ZM260.21,55.2a5.47,5.47,0,0,0-5.46,5.46V332.09a5.47,5.47,0,0,0,5.46,5.46h193.1a5.47,5.47,0,0,0,5.46-5.46V60.66a5.47,5.47,0,0,0-5.46-5.46Z" style="fill:#ebebeb"></path><rect x="69.6" y="125.34" width="160.36" height="106.03" transform="translate(299.55 356.71) rotate(180)" style="fill:#e0e0e0"></rect><rect x="75.09" y="131.08" width="149.37" height="94.55" transform="translate(299.55 356.71) rotate(180)" style="fill:#ebebeb"></rect><polygon points="149.78 140.48 147.01 177 117.29 173.73 119.87 137.66 149.78 140.48" style="fill:#f5f5f5"></polygon><circle cx="166.88" cy="197.71" r="17.1" style="fill:#f5f5f5"></circle><polygon points="105.59 178.88 98.14 190.62 84.25 191.13 93.11 201.84 89.31 215.22 102.23 210.1 113.77 217.85 112.9 203.97 123.84 195.39 110.37 191.93 105.59 178.88" style="fill:#f5f5f5"></polygon><polygon points="189.68 141.89 208.86 145.71 215.14 164.24 202.23 178.94 183.05 175.11 176.77 156.59 189.68 141.89" style="fill:#f5f5f5"></polygon><rect x="261.71" y="125.34" width="126.18" height="256.35" transform="translate(649.59 507.03) rotate(180)" style="fill:#e0e0e0"></rect><rect x="340.99" y="149.1" width="24.58" height="24.58" transform="translate(706.56 322.78) rotate(180)" style="fill:#f0f0f0"></rect><rect x="312.51" y="149.1" width="24.58" height="24.58" transform="translate(649.6 322.78) rotate(180)" style="fill:#f0f0f0"></rect><rect x="284.02" y="149.1" width="24.58" height="24.58" transform="translate(592.63 322.78) rotate(180)" style="fill:#f0f0f0"></rect><rect x="340.99" y="177.69" width="24.58" height="24.58" transform="translate(706.56 379.96) rotate(180)" style="fill:#f0f0f0"></rect><rect x="312.51" y="177.69" width="24.58" height="24.58" transform="translate(649.6 379.96) rotate(180)" style="fill:#f0f0f0"></rect><rect x="284.02" y="177.69" width="24.58" height="24.58" transform="translate(592.63 379.96) rotate(180)" style="fill:#f0f0f0"></rect><path d="M271.77,242.77A4.74,4.74,0,1,0,276.5,238,4.74,4.74,0,0,0,271.77,242.77Z" style="fill:#f0f0f0"></path><rect x="393.18" y="125.5" width="47.65" height="22.46" transform="translate(834.01 273.46) rotate(180)" style="fill:#e0e0e0"></rect><rect x="393.18" y="154.27" width="38.52" height="13.24" transform="translate(824.88 321.77) rotate(180)" style="fill:#e0e0e0"></rect><rect x="393.18" y="125.5" width="43.21" height="22.46" transform="translate(829.57 273.46) rotate(180)" style="fill:#ebebeb"></rect><rect x="393.18" y="154.27" width="34.93" height="13.24" transform="translate(821.29 321.77) rotate(180)" style="fill:#ebebeb"></rect><circle cx="149.78" cy="98.41" r="15.17" transform="translate(1.55 199.12) rotate(-67.5)" style="fill:#f0f0f0"></circle><circle cx="149.78" cy="98.41" r="11.84" transform="translate(1.55 199.12) rotate(-67.5)" style="fill:#fafafa"></circle><polygon points="153.59 102.06 149.3 98.64 149.3 90.43 150.25 90.43 150.25 98.18 154.19 101.32 153.59 102.06" style="fill:#f0f0f0"></polygon></g><g id="freepik--Shadow--inject-65"><ellipse id="freepik--path--inject-65" cx="250" cy="416.24" rx="193.89" ry="11.32" style="fill:#f5f5f5"></ellipse></g><g id="freepik--Plant--inject-65"><path d="M92.24,387.77s-1.39-10.17-7.89-11.29-4.55-6-6.24-7.93-6.13,3.71-2.33,9.15.69,3.73,2.33,8.79S92.84,396.2,92.24,387.77Z" style="fill:#263238"></path><path d="M92.24,387.77s-1.39-10.17-7.89-11.29-4.55-6-6.24-7.93-6.13,3.71-2.33,9.15.69,3.73,2.33,8.79S92.84,396.2,92.24,387.77Z" style="fill:#fff;isolation:isolate;opacity:0.2"></path><path d="M92,394.83a.46.46,0,0,1-.41-.26c0-.1-5-10.68-2.4-27.54a70.14,70.14,0,0,1,4-14.1c3.14-8.58,5.63-15.36-.06-27.74-1.8-3.92-3.63-7.57-5.41-11.1-6.68-13.26-12-23.73-8-34.33a.45.45,0,0,1,.85.31c-3.79,10.24,1.41,20.55,8,33.61,1.79,3.54,3.63,7.2,5.44,11.14,5.84,12.72,3.17,20,.07,28.43a68.79,68.79,0,0,0-3.94,13.92c-2.57,16.56,2.28,26.91,2.33,27a.46.46,0,0,1-.21.6A.49.49,0,0,1,92,394.83Z" style="fill:#263238"></path><path d="M88.21,392.34S84,386,90.08,382.75s7.29-.64,11-3,6.6-8,7.24-4.39-3.69,5.7-2.16,7.37S96,395.2,88.21,392.34Z" style="fill:#263238"></path><path d="M78.29,285.21s-4.09-12.46,5.22-12.72S82.56,283.88,78.29,285.21Z" style="fill:#263238"></path><path d="M86.39,294.78s2.77-11.32,9.39-8.93S93,295,86.39,294.78Z" style="fill:#263238"></path><path d="M75.17,295.76s1-9-6-9.21S65.25,294.3,75.17,295.76Z" style="fill:#263238"></path><path d="M79.84,314.2s-9.42-8.4-12.81-2.15S74.13,319.6,79.84,314.2Z" style="fill:#263238"></path><path d="M96.5,312.71s1.77-13.95,9.38-9.58S103.13,314.1,96.5,312.71Z" style="fill:#263238"></path><path d="M103.2,332.67s-5.62-14.09,4.82-12.5S110.56,329.25,103.2,332.67Z" style="fill:#263238"></path><path d="M87.18,337.7s-8.81-10.38-15.55-7.09S70.4,344.23,87.18,337.7Z" style="fill:#263238"></path><path d="M95.18,360.71s7.51-16.67,14.19-11S105.11,363.68,95.18,360.71Z" style="fill:#263238"></path><path d="M84.27,359.74s2-12.94-5.45-11.9S73.33,356.79,84.27,359.74Z" style="fill:#263238"></path><g style="isolation:isolate;opacity:0.2"><path d="M78.29,285.21s-4.09-12.46,5.22-12.72S82.56,283.88,78.29,285.21Z" style="fill:#fff"></path><path d="M86.39,294.78s2.77-11.32,9.39-8.93S93,295,86.39,294.78Z" style="fill:#fff"></path><path d="M75.17,295.76s1-9-6-9.21S65.25,294.3,75.17,295.76Z" style="fill:#fff"></path><path d="M79.84,314.2s-9.42-8.4-12.81-2.15S74.13,319.6,79.84,314.2Z" style="fill:#fff"></path><path d="M96.5,312.71s1.77-13.95,9.38-9.58S103.13,314.1,96.5,312.71Z" style="fill:#fff"></path><path d="M103.2,332.67s-5.62-14.09,4.82-12.5S110.56,329.25,103.2,332.67Z" style="fill:#fff"></path><path d="M87.18,337.7s-8.81-10.38-15.55-7.09S70.4,344.23,87.18,337.7Z" style="fill:#fff"></path><path d="M95.18,360.71s7.51-16.67,14.19-11S105.11,363.68,95.18,360.71Z" style="fill:#fff"></path><path d="M84.27,359.74s2-12.94-5.45-11.9S73.33,356.79,84.27,359.74Z" style="fill:#fff"></path></g><path d="M82.32,302.28a.46.46,0,0,1-.22-.06c-5.51-3.09-9.48-8.92-9.64-9.17a.44.44,0,0,1,.12-.62.45.45,0,0,1,.63.12,32.66,32.66,0,0,0,8.94,8.65c.84-1.56,3.87-6.94,6.4-8.46a.46.46,0,0,1,.62.16.45.45,0,0,1-.16.62c-2.68,1.61-6.25,8.45-6.29,8.52a.46.46,0,0,1-.27.22Z" style="fill:#263238"></path><path d="M90.87,319.58a.47.47,0,0,1-.28-.09c-7.84-5.92-17.87-5.67-18-5.68a.47.47,0,0,1-.47-.43.46.46,0,0,1,.44-.47c.11,0,10.11-.25,18.15,5.57,1.05-1.68,5.08-7.74,10.26-10.79a.43.43,0,0,1,.61.16.45.45,0,0,1-.16.62c-5.7,3.36-10.15,10.82-10.19,10.89a.5.5,0,0,1-.31.22Z" style="fill:#263238"></path><path d="M96.31,342.45a.46.46,0,0,1-.23-.06c-.11-.07-11.58-6.66-19.87-6.82a.45.45,0,1,1,0-.9c7.9.15,18.19,5.75,20,6.78,5.32-4.48,9.55-15.5,9.59-15.61a.46.46,0,0,1,.58-.26.45.45,0,0,1,.26.58c-.18.48-4.48,11.69-10.1,16.19A.42.42,0,0,1,96.31,342.45Z" style="fill:#263238"></path><path d="M89.67,366.1a.46.46,0,0,1-.23-.06c-4.33-2.48-9.93-13.34-10.16-13.8a.45.45,0,0,1,.19-.61.46.46,0,0,1,.61.2c0,.11,5.41,10.5,9.48,13.22a25.79,25.79,0,0,1,12.6-8.05.45.45,0,0,1,.56.3.45.45,0,0,1-.3.56A24.56,24.56,0,0,0,90,365.91.47.47,0,0,1,89.67,366.1Z" style="fill:#263238"></path><path d="M88.86,390.83s-3.61-5.74-7.68-6.56-5.83-5.51-7.33-2.68S76.49,393.76,88.86,390.83Z" style="fill:#263238"></path><polygon points="70.14 413.36 109.52 413.36 112.16 389.07 67.51 389.07 70.14 413.36" style="fill:#198754"></polygon><polygon points="66.59 393.67 113.08 393.67 113.67 388.53 66 388.53 66.59 393.67" style="fill:#198754"></polygon><polygon points="66.59 393.67 113.08 393.67 113.67 388.53 66 388.53 66.59 393.67" style="fill:#fff;opacity:0.30000000000000004"></polygon></g><g id="freepik--trash-bin--inject-65"><path d="M425,393.36a2.41,2.41,0,0,0-1.93-3.45,5.13,5.13,0,0,0-1.63-5.61,1.25,1.25,0,0,0-.7-.32,1.42,1.42,0,0,0-.76.34l-4.5,3.23a2.77,2.77,0,0,0-.89.88c-.92,1.78,2.39,4.07,1,5.54-.39.42-1,.5-1.51.81-1.07.67-1.2,2.14-1.7,3.3s-2.24,2.06-2.9,1c.49-1.11-1-2.07-2.2-2.21s-2.47-.2-3.14-1.34c-1.71,1.5-5.55-2.68-5.46-4.36a3.29,3.29,0,0,0-2.68,2.74,19.62,19.62,0,0,0-.14,4.2c0,2.73-.93,5.4-.88,8.13,0,2.12.86,4.48,2.8,5.33a7.5,7.5,0,0,0,3,.41l22.13-.15a3.38,3.38,0,0,0,1.55-.25c1-.53,1.21-1.84,1.3-3q.6-7.22,1.19-14.42Z" style="fill:#198754"></path><path d="M425,393.36a2.41,2.41,0,0,0-1.93-3.45,5.13,5.13,0,0,0-1.63-5.61,1.25,1.25,0,0,0-.7-.32,1.42,1.42,0,0,0-.76.34l-4.5,3.23a2.77,2.77,0,0,0-.89.88c-.92,1.78,2.39,4.07,1,5.54-.39.42-1,.5-1.51.81-1.07.67-1.2,2.14-1.7,3.3s-2.24,2.06-2.9,1c.49-1.11-1-2.07-2.2-2.21s-2.47-.2-3.14-1.34c-1.71,1.5-5.55-2.68-5.46-4.36a3.29,3.29,0,0,0-2.68,2.74,19.62,19.62,0,0,0-.14,4.2c0,2.73-.93,5.4-.88,8.13,0,2.12.86,4.48,2.8,5.33a7.5,7.5,0,0,0,3,.41l22.13-.15a3.38,3.38,0,0,0,1.55-.25c1-.53,1.21-1.84,1.3-3q.6-7.22,1.19-14.42Z" style="fill:#fff;isolation:isolate;opacity:0.30000000000000004"></path><path d="M426.3,370H392l.28,3.47.2,2.48.52,6.44.3,3.71.4,4.93.17,2.11.05.63.21,2.48.27,3.41.17,2.11.18,2.15.2,2.48.15,1.88.17,2.12.07.92h31.51l.08-.92.17-2.11.15-1.9.2-2.48.18-2.14.17-2.11.27-3.41.2-2.48.05-.63.17-2.11.41-4.93.29-3.7.52-6.45.2-2.48.28-3.47Zm2.07,2.28h0l-.67-.66h.72Zm-.17,2.1-.07.84-3.07,3.08-3.53-3.53,3.16-3.15h.74Zm-.89,11-2.25,2.25-3.53-3.52,3.53-3.52,2.43,2.44ZM394.64,383h0l2.43-2.44,3.53,3.52-3.53,3.52-2.24-2.25Zm29.28-3.59-3.52,3.53-3.53-3.53,3.53-3.52Zm-5.54-7.81h4l-2,2Zm.87,12.48-3.52,3.52-3.52-3.52,3.52-3.52Zm-11.71,4.66,3.53-3.52,3.52,3.52-3.52,3.52Zm2.38,4.66-3.52,3.53-3.52-3.52,3.53-3.52Zm5.81-3.51,3.52,3.52-3.52,3.52-3.52-3.53Zm-4.66-6.95-3.53-3.53,3.53-3.52,3.52,3.52Zm-1.15,1.14-3.51,3.52-3.53-3.52,3.53-3.52Zm-8.18-1.14-3.52-3.53,3.52-3.52,3.52,3.52Zm0,2.28,3.52,3.52-3.52,3.52-3.52-3.52Zm3.52,12.85-3.52,3.52-3.52-3.52,3.52-3.52Zm1.14,1.14,3.52,3.53-3.51,3.52-3.53-3.52Zm1.14-1.14,3.53-3.52,3.52,3.52-3.52,3.52Zm8.19,1.14,3.52,3.53-3.52,3.52-3.52-3.52Zm4.67,4.66,3.52,3.53-2.28,2.28h-2.49l-2.28-2.28Zm-3.53-5.8,3.53-3.52,3.52,3.52-3.52,3.52Zm0-9.33,3.53-3.52,3.52,3.52-3.52,3.52Zm2.38-14-3.52,3.53-3.52-3.53,3.15-3.15h.74Zm-8.18-1.14-2-2h4Zm-1.15,1.14-3.51,3.53-3.53-3.53,3.16-3.15h.74Zm-6.17-3.15-2,2-2-2Zm-6.31,0,3.16,3.15-3.53,3.53L394,375.19l-.07-.84,2.76-2.76Zm-3,0-.66.65h0l0-.65Zm-.22,6.09,1.73,1.72-1.47,1.47Zm1,11.82-.14-1.67h0l.91.9-.77.77Zm.17,2.12,1.73-1.74,3.53,3.52-3.53,3.52-1.42-1.42Zm.52,6.52V398l.09.08-.08.08Zm.62,7.51-.45-5.41,1-1,3.53,3.53-3.53,3.51-.59-.59Zm.32,4-.07-.81.34-.33,1.15,1.14Zm1.42-2.28,3.52-3.53,3.52,3.53L403,409.67h-2.49Zm7,2.28,1.15-1.14,1.14,1.14Zm4.57,0-2.29-2.28,3.53-3.53,3.52,3.53-2.28,2.28Zm4.76,0,1.14-1.14,1.15,1.14Zm10.74,0h-1.42l1.15-1.14.34.33Zm.33-4-.6.59-3.53-3.51,3.53-3.53,1,1Zm.62-7.68v.17l-.07-.08.08-.09Zm.21-2.47-1.43,1.42-3.53-3.52,3.53-3.52,1.74,1.74Zm.48-6-.77-.77.91-.9Zm1-11.83-.26,3.21-1.47-1.48,1.73-1.73Z" style="fill:#198754"></path><g style="isolation:isolate;opacity:0.6000000000000001"><path d="M426.3,370H392l.28,3.47.2,2.48.52,6.44.3,3.71.4,4.93.17,2.11.05.63.21,2.48.27,3.41.17,2.11.18,2.15.2,2.48.15,1.88.17,2.12.07.92h31.51l.08-.92.17-2.11.15-1.9.2-2.48.18-2.14.17-2.11.27-3.41.2-2.48.05-.63.17-2.11.41-4.93.29-3.7.52-6.45.2-2.48.28-3.47Zm2.07,2.28h0l-.67-.66h.72Zm-.17,2.1-.07.84-3.07,3.08-3.53-3.53,3.16-3.15h.74Zm-.89,11-2.25,2.25-3.53-3.52,3.53-3.52,2.43,2.44ZM394.64,383h0l2.43-2.44,3.53,3.52-3.53,3.52-2.24-2.25Zm29.28-3.59-3.52,3.53-3.53-3.53,3.53-3.52Zm-5.54-7.81h4l-2,2Zm.87,12.48-3.52,3.52-3.52-3.52,3.52-3.52Zm-11.71,4.66,3.53-3.52,3.52,3.52-3.52,3.52Zm2.38,4.66-3.52,3.53-3.52-3.52,3.53-3.52Zm5.81-3.51,3.52,3.52-3.52,3.52-3.52-3.53Zm-4.66-6.95-3.53-3.53,3.53-3.52,3.52,3.52Zm-1.15,1.14-3.51,3.52-3.53-3.52,3.53-3.52Zm-8.18-1.14-3.52-3.53,3.52-3.52,3.52,3.52Zm0,2.28,3.52,3.52-3.52,3.52-3.52-3.52Zm3.52,12.85-3.52,3.52-3.52-3.52,3.52-3.52Zm1.14,1.14,3.52,3.53-3.51,3.52-3.53-3.52Zm1.14-1.14,3.53-3.52,3.52,3.52-3.52,3.52Zm8.19,1.14,3.52,3.53-3.52,3.52-3.52-3.52Zm4.67,4.66,3.52,3.53-2.28,2.28h-2.49l-2.28-2.28Zm-3.53-5.8,3.53-3.52,3.52,3.52-3.52,3.52Zm0-9.33,3.53-3.52,3.52,3.52-3.52,3.52Zm2.38-14-3.52,3.53-3.52-3.53,3.15-3.15h.74Zm-8.18-1.14-2-2h4Zm-1.15,1.14-3.51,3.53-3.53-3.53,3.16-3.15h.74Zm-6.17-3.15-2,2-2-2Zm-6.31,0,3.16,3.15-3.53,3.53L394,375.19l-.07-.84,2.76-2.76Zm-3,0-.66.65h0l0-.65Zm-.22,6.09,1.73,1.72-1.47,1.47Zm1,11.82-.14-1.67h0l.91.9-.77.77Zm.17,2.12,1.73-1.74,3.53,3.52-3.53,3.52-1.42-1.42Zm.52,6.52V398l.09.08-.08.08Zm.62,7.51-.45-5.41,1-1,3.53,3.53-3.53,3.51-.59-.59Zm.32,4-.07-.81.34-.33,1.15,1.14Zm1.42-2.28,3.52-3.53,3.52,3.53L403,409.67h-2.49Zm7,2.28,1.15-1.14,1.14,1.14Zm4.57,0-2.29-2.28,3.53-3.53,3.52,3.53-2.28,2.28Zm4.76,0,1.14-1.14,1.15,1.14Zm10.74,0h-1.42l1.15-1.14.34.33Zm.33-4-.6.59-3.53-3.51,3.53-3.53,1,1Zm.62-7.68v.17l-.07-.08.08-.09Zm.21-2.47-1.43,1.42-3.53-3.52,3.53-3.52,1.74,1.74Zm.48-6-.77-.77.91-.9Zm1-11.83-.26,3.21-1.47-1.48,1.73-1.73Z" style="fill:#fff"></path></g><rect x="389.77" y="368.53" width="42.6" height="4.49" rx="1.64" transform="translate(822.13 741.56) rotate(180)" style="fill:#198754"></rect><rect x="392.84" y="408.87" width="36.45" height="4.49" rx="1.64" style="fill:#198754"></rect></g><g id="freepik--character-3--inject-65"><g id="freepik--group--inject-65"><path d="M330.44,284.12A54.74,54.74,0,0,1,323,269.79c-1.75-5-2.33-10.54-2.66-15.73a95.81,95.81,0,0,1,0-10.31,2,2,0,0,1,3.95-.26l2,9.79c.69,3.24,1.39,6.47,2.28,9.5,1.75,5.85,5.07,11.53,8.43,16.63a4,4,0,0,1-6.47,4.71Z" style="fill:#e9b376"></path><path d="M331.17,268.59l-7.05,10.09,10,21.5a79,79,0,0,0,1.11-23.6Z" style="fill:#198754"></path><path d="M331.17,268.59l-7.05,10.09,10,21.5a79,79,0,0,0,1.11-23.6Z" style="fill:#fff;isolation:isolate;opacity:0.6000000000000001"></path><path d="M329.54,326.76s8.13-39.1,5.7-50.18c0,0,3.74,7.07,15.69,7.18s17-4.17,17-4.17,3.1,28.68.88,48.84Z" style="fill:#198754"></path><path d="M329.54,326.76s8.13-39.1,5.7-50.18c0,0,3.74,7.07,15.69,7.18s17-4.17,17-4.17,3.1,28.68.88,48.84Z" style="fill:#fff;isolation:isolate;opacity:0.7000000000000001"></path><path d="M340.51,294.76s.12-11,13-10.34c12.62.62,4.84,11.45,4.84,11.45l-3.06-4-9,2.75-2.86-2.44Z" style="isolation:isolate;opacity:0.2"></path><path d="M340.11,291.85s2.78-10.28,13.87-9.63,6.18,11.46,6.18,11.46L356,289.92,346.28,294l-3-3.75Z" style="fill:#198754"></path><path d="M340.11,291.85s2.78-10.28,13.87-9.63,6.18,11.46,6.18,11.46L356,289.92,346.28,294l-3-3.75Z" style="fill:#fff;isolation:isolate;opacity:0.6000000000000001"></path><path d="M358,286.33l-1,.41-8.94,3.76-3.19-3.7a6.87,6.87,0,0,0,1-1.22l.18-.31a5.4,5.4,0,0,0,.48-4.15,9,9,0,0,0-1.81-3.34l4.05-1.11,8.9-2.43a12.35,12.35,0,0,0-1.66,6.75A9.69,9.69,0,0,0,358,286.33Z" style="fill:#ebb376"></path><path d="M356.06,281a32.47,32.47,0,0,1-10.14,4.59l.18-.31a5.4,5.4,0,0,0,.48-4.15,9,9,0,0,0-1.81-3.34l4.05-1.11,8.9-2.43A12.35,12.35,0,0,0,356.06,281Z" style="isolation:isolate;opacity:0.2"></path><path d="M343.57,251.51s-10.18,6.68-.69,16.14C353.6,278.32,343.57,251.51,343.57,251.51Z" style="fill:#263238"></path><path d="M364.85,266.7c-1.3,7.16-6.23,14.71-12.33,15.14-11.19.8-15.26-1.77-15.59-10-.33-7.46,3.53-18.77,12.83-19.93S366.66,256.77,364.85,266.7Z" style="fill:#ebb376"></path><path d="M342,256.2A20,20,0,0,0,352.53,258s4.31,1.19,2.82,6,4,8.16,3.47,14.73c0,0,6.92-.09,9.53-14.32,1.9-10.36-6.73-15.4-16.07-16.22C344.47,247.52,338.35,252.54,342,256.2Z" style="fill:#263238"></path><path d="M349.6,266.64c-.14.92-.74,1.6-1.34,1.5s-1-.91-.83-1.82.73-1.58,1.33-1.49S349.73,265.73,349.6,266.64Z" style="fill:#263238"></path><path d="M340.9,265.55c-.13.87-.7,1.52-1.27,1.43s-.93-.87-.8-1.74.7-1.51,1.27-1.43S341,264.68,340.9,265.55Z" style="fill:#263238"></path><path d="M347.65,261.67a.45.45,0,0,1-.11-.23.43.43,0,0,1,.4-.44,4.08,4.08,0,0,1,3.47,1.54.42.42,0,0,1-.1.58h0a.44.44,0,0,1-.58-.1h0a3.27,3.27,0,0,0-2.79-1.17A.43.43,0,0,1,347.65,261.67Z" style="fill:#263238"></path><path d="M339.06,261.34a.51.51,0,0,1-.21-.15.42.42,0,0,1,.15-.57,4.09,4.09,0,0,1,3.78-.32.42.42,0,0,1,.19.56h0a.43.43,0,0,1-.55.19h0a3.25,3.25,0,0,0-3,.31A.47.47,0,0,1,339.06,261.34Z" style="fill:#263238"></path><path d="M342.71,266.17l-.62,4a5,5,0,0,1-2.65-1.27A11.93,11.93,0,0,0,342.71,266.17Z" style="fill:#d58745"></path><path d="M356.25,270.2s2.46-4.19,4.57-2.51.72,9-2.67,8.58S354.41,272.38,356.25,270.2Z" style="fill:#ebb376"></path><path d="M341.61,272.69a31.6,31.6,0,0,1,1.63,4.27l.8-.1c3.62-.52,5.13-2,5.71-3.39a4.69,4.69,0,0,0,.26-2.22,4.79,4.79,0,0,0-.28-1.25c-1.76,1.43-5.09,2.17-6.89,2.49C342.09,272.64,341.61,272.69,341.61,272.69Z" style="fill:#263238"></path><path d="M342.84,272.49l.51,1.25c3.41-.5,5.74-1.3,6.66-2.49a4.79,4.79,0,0,0-.28-1.25C348,271.43,344.64,272.17,342.84,272.49Z" style="fill:#fff"></path><path d="M344,276.86c3.62-.52,5.13-2,5.71-3.39a11.66,11.66,0,0,0-3.91,1.37A4.42,4.42,0,0,0,344,276.86Z" style="fill:#de5753"></path><path d="M365.52,283.73c3.43-5.05,6.84-10.68,8.67-16.5.93-3,1.69-6.24,2.42-9.46l2.15-9.77a2,2,0,0,1,3.95.32,93.22,93.22,0,0,1-.2,10.31c-.4,5.19-1.06,10.7-2.89,15.69a54.56,54.56,0,0,1-7.71,14.21c-3.28,4.06-9.37-.52-6.39-4.8Z" style="fill:#e9b376"></path><path d="M364.49,281.48s-1.49,13.06,4.95,20.21l11.15-22.51-7.44-9.88S368.7,278.4,364.49,281.48Z" style="fill:#198754"></path><path d="M364.49,281.48s-1.49,13.06,4.95,20.21l11.15-22.51-7.44-9.88S368.7,278.4,364.49,281.48Z" style="fill:#fff;isolation:isolate;opacity:0.6000000000000001"></path><path d="M352.71,353.87c1.66,35.35,15.45,59,15.45,59l7.15-1.49s-13.92-26.34-9.18-60.28Z" style="fill:#ebb376"></path><path d="M325.3,344.79c-13.69,32.63-11.4,59.89-11.4,59.89l7.1,1.72s-1.25-29.76,17.62-58.37Z" style="fill:#ebb376"></path><path d="M314.6,404.3l7.32,1.23a.47.47,0,0,1,.41.52h0l-.62,5.86a1.18,1.18,0,0,1-1.33,1c-2.55-.48-3.75-.83-7-1.4a61.93,61.93,0,0,1-8.55-1.71c-2.63-.89-1.68-3.46-.49-3.32a18.16,18.16,0,0,0,9-2A1.87,1.87,0,0,1,314.6,404.3Z" style="fill:#263238"></path><path d="M310.92,404.49a.82.82,0,0,1,0-.88.58.58,0,0,1,.42-.37c.86-.18,2.49,1.39,2.68,1.57a.17.17,0,0,1,0,.17.14.14,0,0,1-.13.1,8.91,8.91,0,0,1-1.79-.06A1.79,1.79,0,0,1,310.92,404.49Zm.44-.92a.28.28,0,0,0-.21.18.59.59,0,0,0,0,.56c.26.35,1.11.53,2.32.5-.68-.61-1.67-1.34-2.13-1.24Z" style="fill:#198754"></path><path d="M313.76,405.06c-.59-.49-1.33-2-1.06-2.71a.59.59,0,0,1,.63-.36.82.82,0,0,1,.61.32c.55.75.08,2.62.07,2.68a.16.16,0,0,1-.11.1s0,0-.06,0A.08.08,0,0,1,313.76,405.06Zm-.45-2.74c-.22,0-.3.08-.33.17a3.26,3.26,0,0,0,.78,2.17,3.36,3.36,0,0,0-.08-2.14.44.44,0,0,0-.3-.19Z" style="fill:#198754"></path><path d="M367,408.72l7.41-.46a.47.47,0,0,1,.52.42h0l.73,5.85a1.16,1.16,0,0,1-1.08,1.24c-2.59.12-3.84.05-7.1.23a62.44,62.44,0,0,1-8.71.28c-2.77-.27-2.43-3-1.24-3.13a18.18,18.18,0,0,0,8.35-4A1.92,1.92,0,0,1,367,408.72Z" style="fill:#263238"></path><path d="M363.48,409.75a.83.83,0,0,1-.24-.85.57.57,0,0,1,.33-.46c.79-.36,2.74.79,3,.93a.16.16,0,0,1,0,.28,8,8,0,0,1-1.75.34A1.81,1.81,0,0,1,363.48,409.75Zm.22-1a.27.27,0,0,0-.16.22.56.56,0,0,0,.14.54c.34.29,1.21.27,2.37,0-.8-.44-1.93-.93-2.35-.73Z" style="fill:#198754"></path><path d="M366.38,409.66c-.69-.35-1.76-1.67-1.65-2.4a.59.59,0,0,1,.53-.5.82.82,0,0,1,.67.18c.7.6.67,2.53.67,2.59a.16.16,0,0,1-.08.13h-.06A.08.08,0,0,1,366.38,409.66Zm-1.07-2.57c-.22,0-.27.15-.27.24a3.16,3.16,0,0,0,1.25,1.93c0-.62-.14-1.7-.57-2.06a.41.41,0,0,0-.33-.12Z" style="fill:#198754"></path><path d="M329.89,325.42s-8.12,17.89-8.56,32.46l19,2.19s1.93-6.66,5.37-10.46a70,70,0,0,0,4.63,10.55l18.39.18s-1.23-11.06.23-33.21l.22-2.72-38.65-2.71Z" style="fill:#198754"></path><polygon points="335.84 322.27 335.68 325.02 329.74 324.56 330.23 321.88 335.84 322.27"></polygon><polygon points="355.51 323.66 355.43 326.53 336.63 325.1 336.99 322.35 355.51 323.66"></polygon><polygon points="369.33 324.63 369.06 327.59 356.41 326.61 356.67 323.74 369.33 324.63"></polygon><rect x="342.73" y="322.69" width="5.22" height="3.3" rx="0.7" transform="translate(31.13 -30.24) rotate(5.25)" style="fill:#fff"></rect><path d="M382.58,249.8l4.18-5.92-8.36-1.36s-1.57,4.65,1.3,8.36Z" style="fill:#ebb376"></path><polygon points="386.34 236.76 379.94 236.91 378.4 242.52 386.76 243.88 386.34 236.76" style="fill:#ebb376"></polygon><path d="M323.79,245.2l4.18-5.91-8.36-1.37s-1.57,4.66,1.3,8.36Z" style="fill:#ebb376"></path><polygon points="327.55 232.17 321.15 232.31 319.61 237.92 327.97 239.28 327.55 232.17" style="fill:#ebb376"></polygon><path d="M416.63,251.7a440.64,440.64,0,0,0-123.69-11.37l4.83-52.59a440.71,440.71,0,0,1,123.7,11.37Q419.06,225.4,416.63,251.7Z" style="fill:#198754"></path><path d="M327.48,208.86a.73.73,0,0,1-.72-.79,37.65,37.65,0,0,0-.58-8.66.84.84,0,0,1,.63-1,.74.74,0,0,1,.93.56,39.48,39.48,0,0,1,.61,9.08.86.86,0,0,1-.86.77Z" style="fill:#fff"></path><path d="M324,200.85a.71.71,0,0,1-.72-.69.86.86,0,0,1,.76-.87c2.28-.29,4.57-.56,6.85-.81a.75.75,0,0,1,.84.7.86.86,0,0,1-.76.87c-2.28.24-4.57.51-6.86.79Z" style="fill:#fff"></path><path d="M334.21,209.06a.73.73,0,0,1-.72-.81,66.57,66.57,0,0,0-.17-7.87.83.83,0,0,1,.72-.88.74.74,0,0,1,.86.67,65.28,65.28,0,0,1,.17,8.13.85.85,0,0,1-.86.76Z" style="fill:#fff"></path><path d="M338.27,209.2a.76.76,0,0,1-.72-.82,5.7,5.7,0,0,0-.67-2.91c-.46-.8-2.35-.07-2.83.17a.77.77,0,0,1-1.05-.34.82.82,0,0,1,.39-1.06c1.34-.67,3.88-1.34,4.88.41a7.09,7.09,0,0,1,.86,3.79.83.83,0,0,1-.85.76Z" style="fill:#fff"></path><path d="M348.31,209.82a1.65,1.65,0,0,1-.85-.33,2.43,2.43,0,0,1-.64-.89,2,2,0,0,1-.25.25,3.39,3.39,0,0,1-3.39-.08,3.73,3.73,0,0,1-2.11-3.7,2.62,2.62,0,0,1,1.18-2.14c1.45-.92,3.57-.13,3.81,0a.75.75,0,0,1,.24.15.79.79,0,0,1,.68-.4.76.76,0,0,1,.79.74c0,.36,0,.86,0,1.42.05,1.73.34,3.24.71,3.44a.76.76,0,0,1,.94.56.79.79,0,0,1-.58.95A1.63,1.63,0,0,1,348.31,209.82Zm-4.25-5.76a1.67,1.67,0,0,0-1,.19c-.09.05-.36.22-.42.89a2.24,2.24,0,0,0,1.3,2.23,2.12,2.12,0,0,0,1.67.24,6,6,0,0,0,.55-2.81v-.52a.79.79,0,0,1-.73.08A5.68,5.68,0,0,0,344.06,204.06Z" style="fill:#fff"></path><path d="M351,210h0a.77.77,0,0,1-.7-.84c.17-2,.33-4,.5-6a.79.79,0,0,1,.85-.73h0a.78.78,0,0,1,.72.73,1.81,1.81,0,0,1,.3-.25,1.69,1.69,0,0,1,1.36-.31c1.69.35,1.81,2.34,1.9,3.94a5.3,5.3,0,0,0,.29,1.83.78.78,0,0,1,.28,1.07.81.81,0,0,1-1.09.29c-.9-.51-1-1.76-1.06-3.08-.06-1-.14-2.4-.66-2.51,0,0,0,0-.11,0-.78.55-1.49,3.36-1.72,5.09A.8.8,0,0,1,351,210Z" style="fill:#fff"></path><path d="M391,214.89a.7.7,0,0,1-.19-.06.86.86,0,0,1-.5-1,2.55,2.55,0,0,1-.35.14,1.67,1.67,0,0,1-1.38-.18c-1.51-.91-1.11-2.84-.78-4.4a5.43,5.43,0,0,0,.22-1.84.78.78,0,0,1,0-1.11.8.8,0,0,1,1.12.09c.72.78.46,2,.19,3.29-.21,1-.5,2.34,0,2.62,0,0,0,0,.12,0,.88-.26,2.29-2.69,3-4.25a.74.74,0,0,1,1-.35.87.87,0,0,1,.45,1.05q-1,2.75-2.05,5.5A.72.72,0,0,1,391,214.89Z" style="fill:#fff"></path><path d="M358.33,209.62h-.08a.78.78,0,0,1-.62-.92,92.63,92.63,0,0,0,1.47-10.28.8.8,0,0,1,1.59,0A91,91,0,0,1,359.18,209,.79.79,0,0,1,358.33,209.62Z" style="fill:#fff"></path><path d="M362.91,211.08c-2-.21-4.21-3.63-4.64-4.32a.77.77,0,0,1,.28-1.1c1.42-.8,2.84-1.58,4.26-2.36a.8.8,0,0,1,1.08.31.78.78,0,0,1-.31,1.07l-3.51,1.94c1,1.48,2.33,2.88,3,2.89a.8.8,0,0,1,.77.81.79.79,0,0,1-.81.77Z" style="fill:#fff"></path><path d="M370.58,217.38a4.73,4.73,0,0,1-1.31-.38.82.82,0,0,1-.42-1.05.77.77,0,0,1,1-.39,2,2,0,0,0,2,0c1.21-.74,2-2.8,2.46-5l-.08,0a2,2,0,0,1-1.65.28c-2.78-.71-2.89-5.49-2.9-6a.77.77,0,0,1,.79-.78.81.81,0,0,1,.79.81c0,1.32.43,4.15,1.66,4.47a.44.44,0,0,0,.41-.08c.86-.57,1.48-2.89,1.66-4.22a.75.75,0,0,1,.85-.64h0a.83.83,0,0,1,.71.84c0,1-.38,9.51-3.86,11.63A3.35,3.35,0,0,1,370.58,217.38Z" style="fill:#fff"></path><path d="M381,213.32a3.6,3.6,0,0,1-1.64-.71,3.48,3.48,0,0,1-1.43-3.35,4.39,4.39,0,0,1,2.87-3.39,2.51,2.51,0,0,1,2.5.61l.07-.1a.77.77,0,0,1,1.1-.12c1.58,1.24,1.25,3.7,0,5.36A3.7,3.7,0,0,1,381,213.32Zm.78-6a1.19,1.19,0,0,0-.48,0,2.85,2.85,0,0,0-1.81,2.17,1.8,1.8,0,0,0,.79,1.79c1.41,1.09,2.6-.29,2.93-.73.75-1,1.08-2.56.34-3.14h0a.66.66,0,0,1-.14.2.78.78,0,0,1-1.11-.06A.93.93,0,0,0,381.81,207.36Z" style="fill:#fff"></path><path d="M321.1,230.71a.72.72,0,0,1-.69-.5c-.94-3.13-.24-12.37-.21-12.77a.89.89,0,0,1,.86-.79h0a.73.73,0,0,1,.72.79c0,.09-.71,9.34.15,12.21a.84.84,0,0,1-.54,1A.79.79,0,0,1,321.1,230.71Z" style="fill:#fff"></path><path d="M316.06,218.16a.7.7,0,0,1-.72-.73.88.88,0,0,1,.82-.84c3.47-.21,6.93-.38,10.4-.51a.74.74,0,0,1,.77.76.86.86,0,0,1-.82.81c-3.47.13-6.93.3-10.4.51Z" style="fill:#fff"></path><path d="M335.4,230.66c-2.17-.1-4.35-.18-6.52-.24a.76.76,0,0,1-.72-.85,78.61,78.61,0,0,0,.18-11.43.82.82,0,0,1,.22-.59.79.79,0,0,1,.57-.28q3.74-.22,7.46-.39a.74.74,0,0,1,.8.75.84.84,0,0,1-.8.82c-2.21.09-4.42.21-6.63.34a77.45,77.45,0,0,1-.12,10.08c1.9.06,3.8.13,5.7.22a.75.75,0,0,1,.72.82A.84.84,0,0,1,335.4,230.66Z" style="fill:#fff"></path><path d="M333.85,224.46l-4.65-.16a.73.73,0,0,1-.72-.8.86.86,0,0,1,.86-.77l4.65.16a.75.75,0,0,1,.72.82A.84.84,0,0,1,333.85,224.46Z" style="fill:#fff"></path><path d="M339,231.3a.86.86,0,0,1-.23-.05.77.77,0,0,1-.44-1q2.6-6.45,5.19-12.9a.83.83,0,0,1,.71-.52.75.75,0,0,1,.74.43,47.66,47.66,0,0,1,3.59,13.7.81.81,0,0,1-.69.89.77.77,0,0,1-.88-.67,51.11,51.11,0,0,0-2.74-11.46l-4.45,11.07A.84.84,0,0,1,339,231.3Z" style="fill:#fff"></path><path d="M348.28,225.28c-2.35-.17-4.71-.33-7.07-.46a.76.76,0,0,1-.72-.83.82.82,0,0,1,.86-.74c2.36.13,4.72.29,7.08.46a.77.77,0,0,1,.71.84A.8.8,0,0,1,348.28,225.28Z" style="fill:#fff"></path><path d="M355.53,232.72a3,3,0,0,1-.42-.06c-2.18-.39-3.26-4.42-3.51-7.76-.11-1.46-.29-6.3,2-7.11a7.32,7.32,0,0,1,6.06.91.78.78,0,0,1,.22,1.09.8.8,0,0,1-1.1.21,5.86,5.86,0,0,0-4.67-.72c-.54.18-1.22,2.06-.95,5.49s1.38,6.19,2.21,6.34c2.33.43,3.78-2,3.84-2.09a.78.78,0,0,1,1.08-.28.81.81,0,0,1,.29,1.08C360.52,230,358.7,233,355.53,232.72Z" style="fill:#fff"></path><path d="M362.91,233.45a.79.79,0,0,1-.71-.85A109.56,109.56,0,0,1,364.25,219a.78.78,0,0,1,.95-.58.8.8,0,0,1,.59,1,109,109,0,0,0-2,13.4.78.78,0,0,1-.84.72Z" style="fill:#fff"></path><path d="M369.87,234.26h-.06a.81.81,0,0,1-.64-.93c1.12-6.39,3.08-13.38,3.1-13.45a.77.77,0,0,1,1-.52.83.83,0,0,1,.55,1c0,.07-2,7-3.07,13.29A.76.76,0,0,1,369.87,234.26Z" style="fill:#fff"></path><path d="M372.36,227.45c-2.8-.36-5.61-.69-8.41-1a.81.81,0,0,1-.72-.87.79.79,0,0,1,.86-.71q4.21.47,8.41,1a.83.83,0,0,1,.71.89A.75.75,0,0,1,372.36,227.45Z" style="fill:#fff"></path><path d="M382.3,235.32c-2.15-.33-4.3-.65-6.46-.94a.85.85,0,0,1-.57-.35.82.82,0,0,1-.12-.66,79.07,79.07,0,0,0,1.24-11.44.74.74,0,0,1,.79-.73q3.72.18,7.44.42a.87.87,0,0,1,.79.85.73.73,0,0,1-.79.74q-3.35-.22-6.69-.39a82.89,82.89,0,0,1-1.06,10.11q2.79.39,5.57.82a.84.84,0,0,1,.71.9A.74.74,0,0,1,382.3,235.32Z" style="fill:#fff"></path><path d="M381.33,228.94c-1.53-.23-3.07-.45-4.6-.66a.83.83,0,0,1-.71-.89.74.74,0,0,1,.85-.68c1.54.21,3.07.43,4.61.66a.84.84,0,0,1,.71.9A.74.74,0,0,1,381.33,228.94Z" style="fill:#fff"></path><path d="M387.88,237.22a.86.86,0,0,1-.71-.86l.33-13.74a.72.72,0,0,1,.65-.71c1.25-.15,7.49-.59,8.64,2.27,1,2.37-2.84,4.63-5.25,5.82q3,1.88,6,3.79a.84.84,0,0,1,.31,1.1.73.73,0,0,1-1.05.23q-3.63-2.33-7.26-4.58a.85.85,0,0,1-.41-.74.72.72,0,0,1,.43-.67c3.07-1.33,6.21-3.49,5.82-4.45s-3.74-1.41-6.3-1.24q-.15,6.52-.32,13.07a.71.71,0,0,1-.8.71Z" style="fill:#fff"></path><path d="M404.41,217.7a3,3,0,0,1-1.19-.56,2.73,2.73,0,0,1-1.35-2.17c0-1.37,1.71-2.18,1.78-2.21a.41.41,0,0,1,.51.2.36.36,0,0,1-.14.5c-.39.18-1.39.83-1.41,1.61,0,.46.33,1,1,1.47a1.46,1.46,0,0,0,1.8.23,2,2,0,0,0,.75-2.12,1.71,1.71,0,0,0-1.46-1.2.43.43,0,0,1-.34-.44.33.33,0,0,1,.4-.31,2.55,2.55,0,0,1,2.11,1.82,2.72,2.72,0,0,1-1,2.91A1.89,1.89,0,0,1,404.41,217.7Z" style="fill:#fff"></path><path d="M403.53,221.83a1.88,1.88,0,0,1-1.43-1,3,3,0,0,1,0-2.11,3,3,0,0,1-1.39.52,2.13,2.13,0,0,1-1.63-.61,1.6,1.6,0,0,1-.65-1.43c.12-.86,1.1-1.51,1.88-1.89-1.08-.44-2.61-1.32-2.54-2.79a.89.89,0,0,1,.5-.83c.9-.44,2.87.53,4,1.21-.63-.85-1.44-2.16-1.3-3.2a1.51,1.51,0,0,1,1-1.2,1.62,1.62,0,0,1,1.54.09,5.5,5.5,0,0,1,1.85,3,4,4,0,0,1,1.69-2.39,1.8,1.8,0,0,1,1.62.09,1.65,1.65,0,0,1,.94,1.18c.19,1.07-.83,2.35-1.65,3.18a3.82,3.82,0,0,1,2.29.54,2.09,2.09,0,0,1,.85,1.35,1.22,1.22,0,0,1-.34,1.22,3.1,3.1,0,0,1-2.4.25,5.49,5.49,0,0,1,1.92,2.65,1.31,1.31,0,0,1-.37,1.17,1.24,1.24,0,0,1-1.13.33c-1-.19-2.18-1.38-3-2.36a3.53,3.53,0,0,1-.46,2.55,1.72,1.72,0,0,1-1.75.5Zm-.08-5.36a.41.41,0,0,1,.17.07.4.4,0,0,1,.11.53c-.58.9-1.37,2.64-1,3.47.05.11.2.42.9.55a1.13,1.13,0,0,0,1.13-.28c.64-.76.24-2.73,0-3.43A.34.34,0,0,1,405,217a.41.41,0,0,1,.47.17c.56.84,2.26,3,3.37,3.28a.59.59,0,0,0,.55-.16.62.62,0,0,0,.18-.55c-.17-1.07-2.23-2.67-3-3.18a.42.42,0,0,1-.17-.49.33.33,0,0,1,.43-.19c1,.37,2.9.78,3.44.31.08-.07.19-.21.12-.55a1.2,1.2,0,0,0-.49-.8,4.39,4.39,0,0,0-3-.24.4.4,0,0,1-.44-.22.36.36,0,0,1,.07-.46c1-.81,2.49-2.43,2.33-3.35,0-.15-.1-.36-.49-.56a1,1,0,0,0-1-.07c-1,.46-1.56,2.52-1.69,3.27a.34.34,0,0,1-.36.28.44.44,0,0,1-.37-.35c-.16-.87-.79-3.26-1.8-3.86a.91.91,0,0,0-.88,0,.84.84,0,0,0-.58.68c-.15,1,1.22,2.76,1.76,3.35a.38.38,0,0,1,0,.53.27.27,0,0,1-.2.09l0,.07a.35.35,0,0,1-.5.11c-1.35-.87-3.52-2-4.14-1.65-.06,0-.12.08-.13.25-.07,1.49,2.9,2.28,2.93,2.29a.42.42,0,0,1,.31.35.35.35,0,0,1-.22.38c-.86.29-2.27,1-2.36,1.72,0,.08-.05.34.37.71a1.34,1.34,0,0,0,1.05.4c1.29-.09,2.5-1.85,2.51-1.87A.32.32,0,0,1,403.45,216.47Z" style="fill:#fff"></path><path d="M406.71,236.54l-.11,0a.42.42,0,0,1-.2-.52c2.68-6.32-1.31-18.16-1.35-18.27a.35.35,0,0,1,.22-.46.41.41,0,0,1,.48.28c.17.49,4.12,12.24,1.33,18.82A.32.32,0,0,1,406.71,236.54Z" style="fill:#fff"></path><path d="M407.87,228.17a.42.42,0,0,1-.32-.33.32.32,0,0,1,.27-.42c1.7-.21,3.58-.75,3.68-1.23,0-.09-.17-.25-.22-.3-1.5-1.28-3.5,1.2-3.52,1.22a.28.28,0,0,1-.2.12c-.66.1-4,.58-4.93-.58a1.25,1.25,0,0,1-.1-1.37,1.76,1.76,0,0,1,1.28-1.11c1.54-.33,3.63,1.26,3.72,1.33a.41.41,0,0,1,.11.53.35.35,0,0,1-.51.06c-.52-.4-2.1-1.39-3.1-1.17a1.1,1.1,0,0,0-.82.72c-.11.26-.12.45,0,.57.44.55,2.64.49,4.06.28.45-.52,2.56-2.79,4.46-1.17a1.18,1.18,0,0,1,.51,1.11c-.23,1.18-3.29,1.63-4.23,1.75Z" style="fill:#fff"></path><path d="M311.16,209.13a1.94,1.94,0,0,1-1.39-.53,2.74,2.74,0,0,1-.46-3,2.55,2.55,0,0,1,2.41-1.4.33.33,0,0,1,.33.37.41.41,0,0,1-.41.38,1.68,1.68,0,0,0-1.65.91,2,2,0,0,0,.34,2.22,1.46,1.46,0,0,0,1.82.1c.77-.38,1.19-.81,1.26-1.26.12-.78-.75-1.59-1.09-1.84a.36.36,0,0,1-.05-.52.39.39,0,0,1,.53-.1c.07,0,1.57,1.14,1.36,2.5a2.75,2.75,0,0,1-1.73,1.88A2.88,2.88,0,0,1,311.16,209.13Z" style="fill:#fff"></path><path d="M311.27,213.35h-.09a1.75,1.75,0,0,1-1.63-.82,3.56,3.56,0,0,1,0-2.59c-1,.82-2.3,1.77-3.35,1.78a1.25,1.25,0,0,1-1.06-.54A1.29,1.29,0,0,1,305,210a5.46,5.46,0,0,1,2.37-2.25,3.14,3.14,0,0,1-2.32-.69,1.22,1.22,0,0,1-.1-1.26,2.06,2.06,0,0,1,1.08-1.18,3.86,3.86,0,0,1,2.35-.1c-.65-1-1.43-2.41-1-3.43a1.63,1.63,0,0,1,1.14-1,1.79,1.79,0,0,1,1.61.21,4,4,0,0,1,1.22,2.65,5.49,5.49,0,0,1,2.36-2.61,1.63,1.63,0,0,1,1.54.19,1.51,1.51,0,0,1,.74,1.36c0,1-1.08,2.19-1.86,2.91,1.27-.46,3.39-1.05,4.19-.46a.92.92,0,0,1,.34.92c-.19,1.45-1.86,2-3,2.27.69.52,1.54,1.34,1.5,2.21a1.64,1.64,0,0,1-.9,1.29,2.22,2.22,0,0,1-1.72.3,3,3,0,0,1-1.26-.77,3,3,0,0,1-.38,2.07A1.9,1.9,0,0,1,311.27,213.35Zm-.76-5.12a.41.41,0,0,1,.19.05.36.36,0,0,1,.11.46c-.33.65-1.08,2.52-.59,3.38a1.11,1.11,0,0,0,1,.48c.71,0,.92-.28,1-.38.54-.75.09-2.59-.32-3.58a.41.41,0,0,1,.21-.51.36.36,0,0,1,.49.16s.88,2,2.12,2.29a1.37,1.37,0,0,0,1.11-.2c.48-.29.49-.55.5-.63,0-.71-1.22-1.68-2-2.13a.32.32,0,0,1-.15-.4.42.42,0,0,1,.37-.3s3.1-.23,3.29-1.72c0-.16,0-.22-.08-.26-.55-.41-2.88.25-4.36.86a.35.35,0,0,1-.48-.19.22.22,0,0,1,0-.08.28.28,0,0,1-.19-.12.38.38,0,0,1,.11-.53c.63-.48,2.29-1.94,2.33-3a.84.84,0,0,0-.44-.77.91.91,0,0,0-.88-.12c-1.1.41-2.16,2.64-2.47,3.46a.44.44,0,0,1-.42.28.34.34,0,0,1-.31-.34c0-.76-.17-2.89-1.07-3.52a1.07,1.07,0,0,0-1-.11.77.77,0,0,0-.58.45c-.33.88.86,2.75,1.68,3.72a.36.36,0,0,1,0,.47.4.4,0,0,1-.47.13,4.46,4.46,0,0,0-3-.3,1.25,1.25,0,0,0-.63.7c-.12.33,0,.48,0,.57.45.56,2.35.49,3.44.32a.33.33,0,0,1,.39.26.42.42,0,0,1-.25.45c-.87.37-3.18,1.56-3.53,2.58a.58.58,0,0,0,.07.57.57.57,0,0,0,.51.26c1.17,0,3.21-1.88,3.91-2.61A.43.43,0,0,1,310.51,208.23Z" style="fill:#fff"></path><path d="M305.47,227.23a.32.32,0,0,1-.34-.25c-1.54-7,4.49-17.81,4.75-18.26a.4.4,0,0,1,.51-.19.35.35,0,0,1,.14.49c-.07.11-6.14,11-4.66,17.72a.41.41,0,0,1-.29.47A.23.23,0,0,1,305.47,227.23Z" style="fill:#fff"></path><path d="M305.85,218.79h-.12c-.9-.29-3.83-1.29-3.84-2.49,0-.27.11-.66.7-1,2.16-1.24,3.83,1.37,4.17,2,1.37.46,3.52.92,4.05.45.11-.1.14-.28.08-.56a1.14,1.14,0,0,0-.67-.86c-1-.39-2.68.29-3.26.59a.34.34,0,0,1-.49-.15.39.39,0,0,1,.2-.5c.1-.06,2.44-1.24,3.9-.63a1.74,1.74,0,0,1,1.06,1.32,1.29,1.29,0,0,1-.35,1.33c-1.12,1-4.33-.1-5-.33a.28.28,0,0,1-.17-.15s-1.53-2.83-3.24-1.84c-.06,0-.27.16-.27.25,0,.5,1.76,1.36,3.39,1.88a.34.34,0,0,1,.2.47A.43.43,0,0,1,305.85,218.79Z" style="fill:#fff"></path><path d="M394.47,202.64l-.21,0a1,1,0,0,1-.6-1,3.37,3.37,0,0,1,.22-1.17,3.38,3.38,0,0,1-1.89.14.66.66,0,0,1-.46-.59.87.87,0,0,1,.66-.9,3.35,3.35,0,0,1,1.31-.08,2.4,2.4,0,0,1-.48-1,.77.77,0,0,1,.53-.87h0c.2-.08.6-.14,1,.4a3,3,0,0,1,.46.78,2.65,2.65,0,0,1,1.21-1,.65.65,0,0,1,.75.33.89.89,0,0,1-.14,1.1,3.58,3.58,0,0,1-1,.84,4.41,4.41,0,0,1,1.71,1,.59.59,0,0,1,.13.7c-.1.17-.34.35-.89.2a5.16,5.16,0,0,1-1.18-.59,2.62,2.62,0,0,1-.28,1.34A.79.79,0,0,1,394.47,202.64Zm-.1-2.37a3.72,3.72,0,0,0-.31,1.35c0,.42.18.53.31.58A.48.48,0,0,0,395,202a2.49,2.49,0,0,0,.21-1.37c-.2-.15-.39-.3-.59-.47Zm1.22.17a4.64,4.64,0,0,0,1.29.68c.14,0,.38.09.46,0s0-.08-.08-.23a4.4,4.4,0,0,0-1.74-1A5.17,5.17,0,0,1,395.59,200.44Zm-1.72-1a3.52,3.52,0,0,0-1.53,0c-.38.13-.41.36-.4.52s0,.14.17.2a3.65,3.65,0,0,0,2-.25l.09-.19C394.06,199.65,394,199.56,393.87,199.46ZM395,200l.12.09a.59.59,0,0,0,0-.13Zm-.38-.33,0,0,.11-.05-.12,0Zm.23-.41.1,0,0-.12Zm.35-.52a6.13,6.13,0,0,1,.18.61,3.72,3.72,0,0,0,1.14-.88c.29-.37.17-.57.13-.63a.24.24,0,0,0-.3-.13A2.65,2.65,0,0,0,395.23,198.75Zm-1.16.33.4.08a5.19,5.19,0,0,1,.31-.5,3.43,3.43,0,0,0-.49-.9c-.3-.37-.5-.29-.57-.27h0a.41.41,0,0,0-.3.47A2.56,2.56,0,0,0,394.07,199.08Zm-.43-1.78Z" style="fill:#fff"></path><path d="M395.86,199.54a.93.93,0,0,1-.8,1.12,1.1,1.1,0,0,1-1.17-.9.93.93,0,0,1,.8-1.12A1.09,1.09,0,0,1,395.86,199.54Z" style="fill:#fff"></path><path d="M313.57,237.67a1.32,1.32,0,0,1-.56-.14c-.25-.12-.63-.44-.42-1.26a5.08,5.08,0,0,1,.66-1.36,4.43,4.43,0,0,1-2.36-.07.64.64,0,0,1-.36-.76,1.27,1.27,0,0,1,1.1-1,4,4,0,0,1,1.63.06,2.4,2.4,0,0,1-.24-1.28,1.17,1.17,0,0,1,.94-1h0a1,1,0,0,1,1.14.61,3.83,3.83,0,0,1,.3,1,4.11,4.11,0,0,1,1.8-1,.71.71,0,0,1,.82.49c.11.3.09.77-.54,1.3a5.87,5.87,0,0,1-1.53.86,4.37,4.37,0,0,1,1.76,1.45.69.69,0,0,1-.08.85c-.18.2-.53.38-1.15.12a4.43,4.43,0,0,1-1.26-.85,3.58,3.58,0,0,1-.79,1.56A1.18,1.18,0,0,1,313.57,237.67Zm.34-2.89a5.12,5.12,0,0,0-.83,1.57c-.13.51,0,.66.18.73a.65.65,0,0,0,.83-.13,3.3,3.3,0,0,0,.72-1.62c-.19-.2-.38-.41-.56-.63Zm1.44.35a4.84,4.84,0,0,0,1.35,1c.16.06.45.15.58,0s.08-.09,0-.28a4.33,4.33,0,0,0-1.81-1.38C315.42,234.69,315.39,234.91,315.35,235.13Zm-.54-.58.11.13a1,1,0,0,0,0-.17Zm-2.66-1a2.19,2.19,0,0,0-.46,0c-.51.11-.63.38-.67.57s0,.17.14.25a4.74,4.74,0,0,0,2.49,0l.17-.21c-.09-.13-.17-.26-.25-.39A5.09,5.09,0,0,0,312.15,233.53Zm2.3.57,0,0,.15,0-.13,0Zm1-1c0,.25,0,.5,0,.75a5.73,5.73,0,0,0,1.7-.9c.48-.41.39-.65.36-.74s-.14-.2-.32-.18A4,4,0,0,0,315.47,233.07Zm-.6.58.11,0v-.15Zm-.93-.33a4,4,0,0,1,.45.15c.18-.2.37-.38.55-.56a3.31,3.31,0,0,0-.3-1.14c-.24-.48-.51-.41-.6-.39h0a.59.59,0,0,0-.52.51A2.41,2.41,0,0,0,313.94,233.32Zm.06-2.18h0Z" style="fill:#fff"></path><path d="M316,234.1a1.38,1.38,0,0,1-1.36,1.23,1.1,1.1,0,0,1-1.12-1.23,1.37,1.37,0,0,1,1.35-1.23A1.11,1.11,0,0,1,316,234.1Z" style="fill:#fff"></path><path d="M396.19,246.62a1.32,1.32,0,0,1-.55-.24,1.16,1.16,0,0,1-.41-1.36,4,4,0,0,1,.65-1.26,4.5,4.5,0,0,1-2.31-.52.79.79,0,0,1-.36-.84,1,1,0,0,1,1.08-.8,4,4,0,0,1,1.61.37,2.72,2.72,0,0,1-.24-1.35.92.92,0,0,1,.92-.81h0c.27,0,.77.06,1.12.83a3.94,3.94,0,0,1,.3,1.08,3.17,3.17,0,0,1,1.77-.69.88.88,0,0,1,.81.65,1.05,1.05,0,0,1-.54,1.22,4.47,4.47,0,0,1-1.5.59,5.82,5.82,0,0,1,1.72,1.8c.22.48.05.74-.08.85s-.52.29-1.13-.09a5.87,5.87,0,0,1-1.23-1.1,3,3,0,0,1-.78,1.44A1,1,0,0,1,396.19,246.62Zm.34-2.87a4.11,4.11,0,0,0-.82,1.44c-.13.49,0,.68.18.78a.61.61,0,0,0,.82,0,2.92,2.92,0,0,0,.71-1.51c-.19-.24-.38-.49-.56-.75Zm1.42.63a5.9,5.9,0,0,0,1.32,1.24c.16.1.44.25.56.13s.08-.07,0-.28a5.75,5.75,0,0,0-1.78-1.75Q398,244.05,398,244.38Zm-.53-.7.11.16c0-.06,0-.12,0-.17Zm-2.62-1.54a2.5,2.5,0,0,0-.45,0c-.51,0-.62.27-.66.45s0,.17.14.29a4.75,4.75,0,0,0,2.45.41l.16-.18a4.77,4.77,0,0,1-.24-.44A6,6,0,0,0,394.8,242.14Zm2.27,1,0,.05.14,0-.13-.07Zm1-.85c0,.25,0,.5,0,.76a4.58,4.58,0,0,0,1.66-.6c.47-.32.39-.59.36-.68a.31.31,0,0,0-.32-.25A3.15,3.15,0,0,0,398.06,242.31Zm-.58.46.11.07v-.16Zm-.92-.5.45.23.54-.46a4.29,4.29,0,0,0-.29-1.22c-.25-.53-.51-.51-.6-.51h0c-.31,0-.47.16-.51.43A2.92,2.92,0,0,0,396.56,242.27Zm.06-2.21h0Z" style="fill:#fff"></path><path d="M398.56,243.44a1.1,1.1,0,0,1-1.33,1,1.39,1.39,0,0,1-1.11-1.46,1.11,1.11,0,0,1,1.34-1A1.38,1.38,0,0,1,398.56,243.44Z" style="fill:#fff"></path><path d="M329.11,195.42c-.17,0-.39-.1-.54-.51a3.76,3.76,0,0,1-.15-1.07,2.52,2.52,0,0,1-1.13.45.72.72,0,0,1-.77-.58c-.06-.18-.07-.55.43-.88a3.44,3.44,0,0,1,1-.41,2.74,2.74,0,0,1-1-1.21.54.54,0,0,1,.22-.59.8.8,0,0,1,1,0,2.6,2.6,0,0,1,.71.85,2,2,0,0,1,.52-.81.72.72,0,0,1,.91-.05h0c.15.09.39.34.21.89a2.94,2.94,0,0,1-.35.68,2.48,2.48,0,0,1,1.32.36.53.53,0,0,1,.14.67.89.89,0,0,1-.9.43,3.74,3.74,0,0,1-1.13-.3,3.4,3.4,0,0,1,.09,1.64.53.53,0,0,1-.45.42Zm-.34-1.83a3.4,3.4,0,0,0,.14,1.19c0,.11.12.3.25.29s.08,0,.13-.15a3.46,3.46,0,0,0-.14-1.65Zm-.48-.91a3.56,3.56,0,0,0-1.16.43c-.31.21-.3.38-.27.49a.39.39,0,0,0,.44.34,2.46,2.46,0,0,0,1.13-.51c0-.21,0-.41.05-.62Zm1.19.27a3.67,3.67,0,0,0,1.22.36c.41,0,.51-.16.54-.21a.2.2,0,0,0-.06-.27,2.41,2.41,0,0,0-1.33-.29C329.73,192.68,329.61,192.82,329.48,193Zm-.66.06s0,.08,0,.12l.09-.08Zm.05-.38.09.05s0-.07,0-.1h-.05Zm.42-.08,0,.08a.3.3,0,0,1,.08-.08Zm-1.73-1.74a.41.41,0,0,0-.26.09c-.05,0-.09.08-.06.21a3,3,0,0,0,1.15,1.21l.18,0c0-.11.05-.23.08-.33a2.76,2.76,0,0,0-.77-1A.53.53,0,0,0,327.56,190.81Zm1.47,1.1a2.88,2.88,0,0,1,.13.31l.53,0a3,3,0,0,0,.43-.76c.12-.38,0-.47-.08-.51a.39.39,0,0,0-.5,0A2,2,0,0,0,329,191.91Z" style="fill:#fff"></path><path d="M329.57,193.34a.84.84,0,1,1-1.13-1.23.88.88,0,0,1,1.23,0A.86.86,0,0,1,329.57,193.34Z" style="fill:#fff"></path><path d="M354.9,240.39a.52.52,0,0,1-.33-.16.76.76,0,0,1-.09-.94,3.73,3.73,0,0,1,.68-.94,3.68,3.68,0,0,1-1.59-.4.48.48,0,0,1-.23-.54c.05-.17.21-.38.69-.4a3.91,3.91,0,0,1,1.07.18,2.17,2.17,0,0,1,0-1.16.75.75,0,0,1,.82-.54c.19,0,.54.1.68.66a3.3,3.3,0,0,1,0,1,2.94,2.94,0,0,1,1.52-.58.49.49,0,0,1,.48.37.78.78,0,0,1-.37.9,2.84,2.84,0,0,1-1.06.39,1.71,1.71,0,0,1,.58.72.7.7,0,0,1-.27.84h0a.71.71,0,0,1-.92-.07,2.39,2.39,0,0,1-.52-.53,2.53,2.53,0,0,1-.81,1.1A.58.58,0,0,1,354.9,240.39Zm.67-2a3.48,3.48,0,0,0-.77,1c-.17.38,0,.51,0,.55a.2.2,0,0,0,.27,0,2.68,2.68,0,0,0,.75-1.14A4.83,4.83,0,0,1,355.57,238.42Zm.64.41a2.32,2.32,0,0,0,.57.62c.31.23.46.12.51.08h0a.38.38,0,0,0,.16-.45,1.89,1.89,0,0,0-.74-.77l-.34,0C356.32,238.51,356.27,238.67,356.21,238.83Zm-.28-.46a.41.41,0,0,0,.05.09l0-.1Zm-1.67-1a1.61,1.61,0,0,0-.22,0c-.12,0-.33,0-.37.14s0,.08.1.17a3.63,3.63,0,0,0,1.61.35,3.75,3.75,0,0,1-.16-.43A4.55,4.55,0,0,0,354.26,237.36Zm1.83.6L356,238h.1l0-.05Zm-.45-.21,0,.1.07-.06Zm.88,0a2.61,2.61,0,0,1,.28.17,3,3,0,0,0,1.25-.39c.29-.2.28-.4.24-.53s0-.12-.18-.12a3.33,3.33,0,0,0-1.56.69Zm-1-.47c.19.07.38.14.57.23l.18-.14a2.93,2.93,0,0,0,0-1.18c-.09-.39-.3-.39-.36-.4a.43.43,0,0,0-.48.31A2.15,2.15,0,0,0,355.49,237.32Z" style="fill:#fff"></path><path d="M355.16,238.38a.85.85,0,0,1,1.57-.66.83.83,0,0,1-.45,1.11A.85.85,0,0,1,355.16,238.38Z" style="fill:#fff"></path><path d="M298.56,230.48a.54.54,0,0,1-.34-.12c-.16-.13-.31-.4-.09-.92a4.36,4.36,0,0,1,.69-1,3.35,3.35,0,0,1-1.6-.19.41.41,0,0,1-.23-.5c0-.18.21-.4.69-.48a3.69,3.69,0,0,1,1.08,0,2.05,2.05,0,0,1,0-1.15.89.89,0,0,1,.82-.63c.2,0,.55,0,.69.56a2.88,2.88,0,0,1,0,1,3.49,3.49,0,0,1,1.53-.77.42.42,0,0,1,.49.31.84.84,0,0,1-.38.93,3.27,3.27,0,0,1-1.06.52,1.43,1.43,0,0,1,.58.64.76.76,0,0,1-.27.87h0a.76.76,0,0,1-.93.05,2,2,0,0,1-.52-.46,3,3,0,0,1-.81,1.2A.76.76,0,0,1,298.56,230.48Zm.66-2a4.19,4.19,0,0,0-.77,1.1c-.17.4,0,.51,0,.54s.16.07.27,0a2.92,2.92,0,0,0,.76-1.21A3,3,0,0,1,299.22,228.44Zm1.84,1h0Zm-1.19-.67a2.36,2.36,0,0,0,.57.54c.32.18.47.05.52,0h0a.41.41,0,0,0,.16-.47,1.58,1.58,0,0,0-.74-.66l-.34.08C300,228.44,299.93,228.6,299.87,228.77Zm-.28-.43a.41.41,0,0,0,.05.09l0-.1Zm-1.68-.77-.22,0c-.12,0-.34.07-.37.19s0,.08.1.15a3.34,3.34,0,0,0,1.61.14c-.06-.13-.11-.27-.16-.41A4.24,4.24,0,0,0,297.91,227.57Zm1.84.35-.08.07h.1l0,0Zm-.45-.15a.42.42,0,0,0,0,.1l.07-.07Zm.88-.08.29.14a3.57,3.57,0,0,0,1.25-.55c.29-.24.28-.43.24-.55s0-.09-.18-.09a3.79,3.79,0,0,0-1.57.88Zm-1-.33.57.16.18-.16a2.88,2.88,0,0,0,0-1.17c-.09-.33-.25-.36-.36-.34a.49.49,0,0,0-.48.36A2,2,0,0,0,299.15,227.36Z" style="fill:#fff"></path><path d="M298.82,228.46a.92.92,0,0,1,.45-1.16.78.78,0,0,1,1.12.3.92.92,0,0,1-.45,1.16A.79.79,0,0,1,298.82,228.46Z" style="fill:#fff"></path><path d="M410.9,243.74a.66.66,0,0,1-.32-.2.85.85,0,0,1-.09-1,3.13,3.13,0,0,1,.67-.87,3.86,3.86,0,0,1-1.56-.6.54.54,0,0,1-.23-.57c.05-.17.21-.36.68-.32a3.64,3.64,0,0,1,1.06.32,2.36,2.36,0,0,1,0-1.18.66.66,0,0,1,.81-.44c.19,0,.53.17.67.75a3.44,3.44,0,0,1,0,1,2.62,2.62,0,0,1,1.49-.4.61.61,0,0,1,.47.44.71.71,0,0,1-.36.86,2.44,2.44,0,0,1-1,.26,2.17,2.17,0,0,1,.57.8.67.67,0,0,1-.27.82h0c-.15.1-.46.2-.91-.19a3.19,3.19,0,0,1-.51-.6,2.14,2.14,0,0,1-.79,1A.62.62,0,0,1,410.9,243.74Zm.66-1.91a3.09,3.09,0,0,0-.76.92c-.16.37,0,.51,0,.56a.2.2,0,0,0,.27.06,2.1,2.1,0,0,0,.73-1.05C411.72,242.16,411.64,242,411.56,241.83Zm1.79,1.49h0Zm-1.16-1a3.23,3.23,0,0,0,.56.7c.31.27.45.17.5.14h0a.35.35,0,0,0,.16-.44,2.3,2.3,0,0,0-.72-.86h-.34C412.3,242,412.25,242.17,412.19,242.33Zm-.28-.51.06.1,0-.09Zm-1.63-1.22-.22,0c-.12,0-.33,0-.36.1s0,.08.1.18a3.7,3.7,0,0,0,1.58.56,4.19,4.19,0,0,1-.16-.46A4.73,4.73,0,0,0,410.28,240.6Zm1.8.83-.08,0h.1v0Zm-.45-.27a.36.36,0,0,1,0,.11l.07-.05Zm.87.15.28.21a2.66,2.66,0,0,0,1.22-.24.41.41,0,0,0,.24-.5c0-.05,0-.12-.18-.14a2.73,2.73,0,0,0-1.53.5Zm-1-.61.55.31.19-.11a3.46,3.46,0,0,0,0-1.2c-.09-.36-.25-.44-.36-.44a.36.36,0,0,0-.47.24A2.23,2.23,0,0,0,411.49,240.7Z" style="fill:#fff"></path><path d="M411.16,241.74a.78.78,0,0,1,.45-1.07.94.94,0,0,1,1.1.59.79.79,0,0,1-.45,1.08A.94.94,0,0,1,411.16,241.74Z" style="fill:#fff"></path><path d="M412.48,210.88a.64.64,0,0,1-.33-.2.85.85,0,0,1-.09-1,3,3,0,0,1,.68-.87,3.7,3.7,0,0,1-1.57-.6.52.52,0,0,1-.22-.57c0-.17.2-.36.67-.31a3.3,3.3,0,0,1,1.06.31,2.36,2.36,0,0,1,0-1.18.66.66,0,0,1,.81-.44c.19,0,.54.17.67.75a3.08,3.08,0,0,1,0,1,2.62,2.62,0,0,1,1.49-.4.59.59,0,0,1,.48.44.71.71,0,0,1-.37.86,2.4,2.4,0,0,1-1,.26,2.06,2.06,0,0,1,.57.8.66.66,0,0,1-.27.82c-.14.1-.46.2-.91-.18a3.54,3.54,0,0,1-.51-.6,2.05,2.05,0,0,1-.79,1A.52.52,0,0,1,412.48,210.88Zm.65-1.91a3.09,3.09,0,0,0-.76.92c-.16.37,0,.51,0,.56a.19.19,0,0,0,.26.06,2.22,2.22,0,0,0,.74-1C413.3,209.3,413.21,209.14,413.13,209Zm.64.49a3.28,3.28,0,0,0,.55.7c.31.27.46.17.5.14h0a.34.34,0,0,0,.16-.44,2.21,2.21,0,0,0-.72-.86h-.33C413.88,209.15,413.82,209.31,413.77,209.46Zm-.28-.5s0,.07.05.1l0-.09Zm-1.64-1.22a.83.83,0,0,0-.22,0c-.12,0-.32,0-.36.1s0,.07.1.17a3.7,3.7,0,0,0,1.58.56c-.06-.15-.11-.31-.16-.46A4.73,4.73,0,0,0,411.85,207.74Zm1.8.82-.08.06h.1a.09.09,0,0,0,0,0Zm-.45-.27.05.12a.18.18,0,0,1,.07,0Zm.87.15.28.21a2.71,2.71,0,0,0,1.23-.24.41.41,0,0,0,.23-.5c0-.06,0-.13-.17-.14a2.76,2.76,0,0,0-1.54.5Zm-1-.6.56.31.18-.12a3.18,3.18,0,0,0,0-1.19c-.09-.41-.29-.44-.35-.45a.38.38,0,0,0-.48.25A2.34,2.34,0,0,0,413.06,207.84Z" style="fill:#fff"></path><path d="M412.74,208.88a.78.78,0,0,1,.44-1.07.93.93,0,0,1,1.1.59.78.78,0,0,1-.44,1.07A.92.92,0,0,1,412.74,208.88Z" style="fill:#fff"></path><path d="M303.78,200.19a.52.52,0,0,1-.33-.12c-.17-.13-.31-.4-.09-.92a4.29,4.29,0,0,1,.68-1,3.21,3.21,0,0,1-1.6-.2.42.42,0,0,1-.23-.5c.05-.17.21-.4.69-.47a3.37,3.37,0,0,1,1.08,0,2.25,2.25,0,0,1,0-1.15.9.9,0,0,1,.83-.63c.19,0,.54,0,.68.57a2.85,2.85,0,0,1,0,1A3.38,3.38,0,0,1,307,196a.45.45,0,0,1,.49.31.84.84,0,0,1-.37.93,3.38,3.38,0,0,1-1.06.52,1.5,1.5,0,0,1,.58.64.75.75,0,0,1-.28.86h0a.74.74,0,0,1-.92.05,2,2,0,0,1-.53-.46,3,3,0,0,1-.81,1.19A.76.76,0,0,1,303.78,200.19Zm.67-2a4.06,4.06,0,0,0-.78,1.09c-.16.4,0,.51,0,.54a.2.2,0,0,0,.27,0,3,3,0,0,0,.75-1.22C304.62,198.44,304.53,198.3,304.45,198.16Zm.65.32a2.09,2.09,0,0,0,.57.55c.31.18.46.05.51,0h0c.18-.16.23-.3.16-.47a1.58,1.58,0,0,0-.74-.66l-.34.07C305.21,198.15,305.16,198.32,305.1,198.48Zm-.29-.42a.41.41,0,0,1,.05.09l0-.1Zm-1.67-.79-.23,0c-.12,0-.33.07-.37.19s0,.08.1.15a3.24,3.24,0,0,0,1.62.15,3.33,3.33,0,0,1-.16-.4A3.87,3.87,0,0,0,303.14,197.27Zm1.84.36-.08.08.1,0a.43.43,0,0,0,0-.05Zm-.46-.15a.69.69,0,0,1,0,.1l.07-.06Zm.88-.07.29.14A3.53,3.53,0,0,0,307,197c.29-.23.27-.42.24-.54s0-.12-.18-.1a3.74,3.74,0,0,0-1.57.88A1.36,1.36,0,0,1,305.4,197.41Zm-1-.33a4,4,0,0,1,.57.16l.19-.16a3.07,3.07,0,0,0,0-1.17c-.1-.37-.3-.36-.37-.35a.5.5,0,0,0-.48.36A2.07,2.07,0,0,0,304.37,197.08Z" style="fill:#fff"></path><path d="M304,198.17a.94.94,0,0,1,.45-1.16.79.79,0,0,1,1.13.31.93.93,0,0,1-.45,1.16A.8.8,0,0,1,304,198.17Z" style="fill:#fff"></path><path d="M367,201.17c-.25,0-.56-.2-.76-.8a5.53,5.53,0,0,1-.22-1.57,3.13,3.13,0,0,1-1.6.51,1.13,1.13,0,0,1-1.1-.92,1,1,0,0,1,.62-1.22,4.21,4.21,0,0,1,1.38-.46,4.45,4.45,0,0,1-1.46-1.87.72.72,0,0,1,.3-.83,1.15,1.15,0,0,1,1.41.14,4.33,4.33,0,0,1,1,1.31,2.6,2.6,0,0,1,.75-1.1,1,1,0,0,1,1.29,0h0a1.07,1.07,0,0,1,.3,1.32,3.67,3.67,0,0,1-.51.94,3.69,3.69,0,0,1,1.88.68.78.78,0,0,1,.19,1c-.14.29-.48.61-1.26.5a5.31,5.31,0,0,1-1.61-.57,5,5,0,0,1,.13,2.38.67.67,0,0,1-.65.54Zm-.47-2.69a5.22,5.22,0,0,0,.18,1.74c.06.17.17.45.36.45,0,0,.11,0,.19-.21a5.16,5.16,0,0,0-.21-2.38A6.54,6.54,0,0,1,366.57,198.48Zm-.69-1.35a4.37,4.37,0,0,0-1.64.47c-.45.27-.44.51-.4.67a.63.63,0,0,0,.63.54,3,3,0,0,0,1.6-.6c0-.29,0-.59.08-.88Zm1.69.53a5.23,5.23,0,0,0,1.73.66c.62.1.73-.16.76-.23a.28.28,0,0,0-.08-.39,3.52,3.52,0,0,0-1.89-.59A6.67,6.67,0,0,1,367.57,197.66Zm-.95,0c0,.06,0,.12,0,.18l.13-.1Zm.08-.54.13.09a.78.78,0,0,1-.05-.14h-.07A.11.11,0,0,0,366.7,197.11Zm.6-.05a.56.56,0,0,1,0,.12l.11-.12Zm-2.45-2.72a.55.55,0,0,0-.38.1c-.06,0-.13.1-.09.29a4.93,4.93,0,0,0,1.64,1.88l.26,0c0-.16.07-.32.11-.47a4.35,4.35,0,0,0-1.09-1.57A.88.88,0,0,0,364.85,194.34Zm2.08,1.76c.07.15.13.31.19.46.25,0,.5,0,.74,0a3.65,3.65,0,0,0,.62-1c.17-.53-.05-.69-.12-.74h0a.54.54,0,0,0-.7,0A2.58,2.58,0,0,0,366.93,196.1Z" style="fill:#fff"></path><path d="M367.7,198.23a1.25,1.25,0,1,1,.13-1.74A1.23,1.23,0,0,1,367.7,198.23Z" style="fill:#fff"></path></g></g><g id="freepik--character-2--inject-65"><g id="freepik--group--inject-65"><path d="M265,297.27c-5.52,5.62-12.64,10.8-20.73,11.53-5.14-.19-7.53-5.39-8-9.77a2,2,0,0,1,3.61-1.43c1,1.34,2.73,3.85,4.17,4.23.25,0,.08-.16,0-.2l.34-.09c5.74-1.71,10.63-5.78,14.94-9.88,3.78-3.43,9.06,1.79,5.69,5.61Z" style="fill:#e9b376"></path><path d="M268.08,255a65,65,0,0,0-10.71,20.38s-.43-2.05,28.69,7.89c0,0,10.68-19.82.25-25.49S268.08,255,268.08,255Z" style="fill:#263238"></path><path d="M260.29,288.61s-4.84,4-10.3,8l3.58,9s11.16.14,10.84-6.93S260.29,288.61,260.29,288.61Z" style="fill:#198754"></path><path d="M260.29,288.61s-4.84,4-10.3,8l3.58,9s11.16.14,10.84-6.93S260.29,288.61,260.29,288.61Z" style="fill:#fff;isolation:isolate;opacity:0.6000000000000001"></path><path d="M262.26,357.76c24.59,25.44,50.55,34.07,50.55,34.07l4.38-5.85s-27.85-10.58-46.7-39.19Z" style="fill:#ebb376"></path><path d="M252,351.43c-2.7,35.28,8.07,60.42,8.07,60.42l7.28-.6s-10.57-27.85-1.69-60.94Z" style="fill:#ebb376"></path><path d="M259.31,408.72l7.42-.46a.46.46,0,0,1,.51.42h0l.73,5.85a1.16,1.16,0,0,1-1.08,1.24c-2.59.12-3.83.05-7.1.23a62.44,62.44,0,0,1-8.71.28c-2.76-.27-2.43-3-1.23-3.13a18.18,18.18,0,0,0,8.35-4A1.89,1.89,0,0,1,259.31,408.72Z" style="fill:#263238"></path><path d="M255.78,409.75a.83.83,0,0,1-.25-.85.59.59,0,0,1,.33-.46c.79-.36,2.75.79,3,.93a.17.17,0,0,1,.07.15.16.16,0,0,1-.11.13A8.09,8.09,0,0,1,257,410,1.79,1.79,0,0,1,255.78,409.75Zm.21-1a.27.27,0,0,0-.16.22.56.56,0,0,0,.15.54c.33.29,1.2.27,2.37,0-.8-.44-1.93-.93-2.36-.73Z" style="fill:#198754"></path><path d="M258.67,409.66c-.68-.35-1.75-1.67-1.65-2.4a.59.59,0,0,1,.53-.5.81.81,0,0,1,.67.18c.7.6.67,2.53.68,2.59a.22.22,0,0,1-.08.13h-.07A.08.08,0,0,1,258.67,409.66Zm-1.06-2.57c-.22,0-.27.15-.28.24a3.2,3.2,0,0,0,1.25,1.93,3.42,3.42,0,0,0-.56-2.06.42.42,0,0,0-.34-.12Z" style="fill:#198754"></path><path d="M311.31,390.48l5.72-4.74a.47.47,0,0,1,.66,0h0l4,4.3a1.16,1.16,0,0,1-.14,1.63c-2,1.63-3.07,2.3-5.6,4.37a62.31,62.31,0,0,1-6.88,5.35c-2.39,1.42-3.72-1-2.84-1.79a18.22,18.22,0,0,0,4.41-8.14A1.83,1.83,0,0,1,311.31,390.48Z" style="fill:#263238"></path><path d="M309.06,393.39a.83.83,0,0,1-.7-.54.58.58,0,0,1,0-.57c.42-.76,2.68-1,2.94-1a.18.18,0,0,1,.15.08.15.15,0,0,1,0,.17,7.91,7.91,0,0,1-1.21,1.31A1.78,1.78,0,0,1,309.06,393.39Zm-.42-.93a.29.29,0,0,0,0,.27.55.55,0,0,0,.43.35c.44,0,1.13-.49,1.89-1.42-.9.11-2.1.39-2.33.8Z" style="fill:#198754"></path><path d="M311.34,391.62c-.75.12-2.39-.32-2.74-1a.61.61,0,0,1,.13-.72.84.84,0,0,1,.65-.25c.92.07,2,1.65,2.07,1.7a.16.16,0,0,1,0,.15.09.09,0,0,1,0,0A.11.11,0,0,1,311.34,391.62ZM309,390.17c-.15.16-.13.28-.08.35a3.22,3.22,0,0,0,2.15.83c-.39-.49-1.12-1.3-1.67-1.34a.45.45,0,0,0-.34.1Z" style="fill:#198754"></path><path d="M256.6,322.82s6-23.1,3.69-34.21c0,0,3.94-3.51,15.89-3.24s17.38,3.38,17.38,3.38a217.9,217.9,0,0,1-1,38.87Z" style="fill:#198754"></path><path d="M256.6,322.82s6-23.1,3.69-34.21c0,0,3.94-3.51,15.89-3.24s17.38,3.38,17.38,3.38a217.9,217.9,0,0,1-1,38.87Z" style="fill:#fff;isolation:isolate;opacity:0.7000000000000001"></path><path d="M265.62,296.23s.27-11,13.17-10.16c12.61.78,4.7,11.51,4.7,11.51l-3-4.06-9,2.64-2.83-2.48Z" style="isolation:isolate;opacity:0.2"></path><path d="M265.26,293.33s2.91-10.25,14-9.45,6,11.54,6,11.54l-4.06-3.83-9.82,3.93-3-3.79Z" style="fill:#198754"></path><path d="M265.26,293.33s2.91-10.25,14-9.45,6,11.54,6,11.54l-4.06-3.83-9.82,3.93-3-3.79Z" style="fill:#fff;isolation:isolate;opacity:0.6000000000000001"></path><path d="M283.79,288.06l-10.53,4-2.76-3.72a7.57,7.57,0,0,0,1.41-1.52c2.59-3.69-.42-7.47-.42-7.47l4.23-1L285,276C280.15,283.11,283.79,288.06,283.79,288.06Z" style="fill:#ebb376"></path><path d="M283.12,279.09s-5.18,7.7-11.21,7.74c2.59-3.69-.42-7.47-.42-7.47l4.23-1Z" style="isolation:isolate;opacity:0.2"></path><path d="M272.41,251s-10.75,5.73-2.15,16C280,278.58,272.41,251,272.41,251Z" style="fill:#263238"></path><path d="M292.23,268c-1.94,7-7.54,14.09-13.66,14-11.21-.23-15-3.15-14.61-11.43.35-7.45,5.21-18.37,14.59-18.68S294.92,258.3,292.23,268Z" style="fill:#ebb376"></path><path d="M270.38,255.49a20.05,20.05,0,0,0,10.36,2.75s4.19,1.57,2.27,6.26,3.2,8.48,2.12,15c0,0,6.9.54,10.79-13.4,2.83-10.15-5.31-15.94-14.53-17.61C273.67,247.08,267.12,251.53,270.38,255.49Z" style="fill:#263238"></path><path d="M276.56,266.91c-.21.9-.87,1.52-1.46,1.36s-.88-1-.66-1.88.87-1.51,1.46-1.37S276.78,266,276.56,266.91Z" style="fill:#263238"></path><path d="M268.48,264.71c-.21.86-.84,1.45-1.4,1.31s-.84-.95-.63-1.81.83-1.44,1.39-1.3S268.68,263.85,268.48,264.71Z" style="fill:#263238"></path><path d="M275.07,261.78a.54.54,0,0,1-.09-.24.43.43,0,0,1,.44-.4,4.09,4.09,0,0,1,3.32,1.84.41.41,0,0,1-.15.57h0a.44.44,0,0,1-.57-.15h0a3.23,3.23,0,0,0-2.67-1.41A.46.46,0,0,1,275.07,261.78Z" style="fill:#263238"></path><path d="M267,260.35a.55.55,0,0,1-.2-.17.44.44,0,0,1,.2-.56,4.09,4.09,0,0,1,3.8,0,.42.42,0,0,1,.14.57h0a.44.44,0,0,1-.57.14h0a3.25,3.25,0,0,0-3,0A.45.45,0,0,1,267,260.35Z" style="fill:#263238"></path><path d="M270,266.34l-.61,3.42a5.71,5.71,0,0,1-2.54-1.49A9.3,9.3,0,0,0,270,266.34Z" style="fill:#d58745"></path><path d="M283.34,270.73s2.84-4,4.78-2.08-.09,9-3.44,8.3S281.32,272.74,283.34,270.73Z" style="fill:#ebb376"></path><path d="M287.29,285.74a23.21,23.21,0,0,0,2.53-4.3,17.88,17.88,0,0,1-.56,4.66,21.62,21.62,0,0,0,4.84.19s9.15-24.92-.32-31.52-16.18-6.53-16.18-6.53-9-.35-12.17,7.89a57.58,57.58,0,0,1,10.64,3.81l2.21-1.84-.95,3,8.26,4.29s4.59,5.63-3.39,18.8A31.89,31.89,0,0,0,287.29,285.74Z" style="fill:#263238"></path><path d="M270.71,272.86a7.45,7.45,0,0,1-2.7-.47.37.37,0,0,1,.29-.69,7.67,7.67,0,0,0,6.29-.64.38.38,0,0,1,.51.15.37.37,0,0,1-.14.51A8.59,8.59,0,0,1,270.71,272.86Z" style="fill:#263238"></path><path d="M276.17,265.55l-1.42-1.38S274.82,266,276.17,265.55Z" style="fill:#263238"></path><path d="M268.18,263.38,266.76,262S266.83,263.78,268.18,263.38Z" style="fill:#263238"></path><polygon points="257.4 319.47 256.6 322.82 292.65 327.07 292.95 324.22 257.4 319.47"></polygon><path d="M256.6,322.82c-4.51,4.75-11.09,24.39-11.72,38.94,0,0,5.18,4.2,23.62,6.13,15.16,1.6,25.46-.48,25.46-.48-.83-11.91.36-38.82-1.31-40.34Z" style="fill:#198754"></path><path d="M264.59,321.15l-.3,1.71a.73.73,0,0,0,.62.86l4.68.63s.31-1.47.47-2.41a.74.74,0,0,0-.63-.86l-4-.54A.75.75,0,0,0,264.59,321.15Z" style="fill:#fff"></path><polygon points="278.37 322.27 277.97 326.08 279.37 326.21 279.76 322.44 278.37 322.27" style="fill:#198754"></polygon><polygon points="261.07 319.96 260.37 323.68 259.03 323.54 259.77 319.72 261.07 319.96" style="fill:#198754"></polygon><path d="M253.51,268.21s3.42,27.26,3.65,36.12c0,0,10.7,11.07,9.95,14.66s-.23,1.37-2.06,2-.27,2.81-2.86,4.38-5-2.31-8-2.47-3.93,6.73-5.6.69,1.65-20.45,1.65-20.45-24.93-16-26.69-20.67,8.69-3.53,9.58-7.82,2.41-7.23,7.31-4.66,8.48-1.72,8.78-2.5S253,265.46,253.51,268.21Z" style="fill:#198754"></path><path d="M262.19,325.41c-2.59,1.58-5-2.31-8-2.47s-3.93,6.73-5.6.69,1.65-20.45,1.65-20.45-21-13.12-25.9-19.4a5,5,0,0,1-.79-1.26c-1.76-4.71,8.69-3.53,9.58-7.83s2.41-7.23,7.3-4.65,8.49-1.73,8.79-2.51a2.94,2.94,0,0,1,3.46-.69,2,2,0,0,1,.85,1.37s3.42,27.26,3.65,36.12c0,0,10.7,11.07,9.95,14.66s-.24,1.37-2.06,2S264.78,323.84,262.19,325.41Z" style="fill:#fff;isolation:isolate;opacity:0.30000000000000004"></path><path d="M246.77,281.15c-3,.63-7-1.62-8.08.85s2.75,5.74-2,4.95-6.73-6-8.68-4.93c-.55.3-1.54.87-2.69,1.38-.32.14-.65.27-1,.38a5,5,0,0,1-.79-1.26,3.82,3.82,0,0,1-.14-.5c-.87-4.13,8.86-3.19,9.72-7.33a14.88,14.88,0,0,1,.93-3.13h0c1.05-2.35,2.82-3.39,6.38-1.51,4.9,2.57,8.49-1.73,8.79-2.51a3,3,0,0,1,2.42-1,2,2,0,0,1,1,.3c1.11,1.7,0,3.3-1.54,4.79a26,26,0,0,0-3.28,3.33C246.29,277.35,249.71,280.52,246.77,281.15Z" style="isolation:isolate;opacity:0.4"></path><path d="M246.77,281.15c-3,.63-7-1.62-8.08.85s2.75,5.74-2,4.95-6.73-6-8.68-4.93l-.63.35c-.55.3-1.26.68-2.06,1-.68-.47-1.33-.93-1.91-1.38-1.35-1-2.29-2-2.21-2.53.24-1.8,5.17-1.76,5.17-1.76s-3.5-1.16-2.12-3.38,5,.53,5,.53-2.19-3.88-1.11-6.1,5.69,2.54,5.91,2.77c-.1-.15-1.93-2.9-.86-5.75s8.09,2.69,8.09,2.69-2.92-4.67-1-5.66,3.78,2.68,3.92,2.95c-.07-.39-1.11-6.21,1-5.58s2.49,5.52,2.51,5.78c.07-.15,1.81-4.42,3.64-2.73.8.75.69,2.06.3,3.29a14.86,14.86,0,0,1-1.49,3.16l1,1.93c-.35.35-.72.69-1.08,1a14.87,14.87,0,0,0-2.2,2.32C246.29,277.35,249.71,280.52,246.77,281.15Z" style="fill:#198754"></path><path d="M246.77,281.15c-3,.63-7-1.62-8.08.85s2.75,5.74-2,4.95-6.73-6-8.68-4.93l-.63.35c-.55.3-1.26.68-2.06,1-.68-.47-1.33-.93-1.91-1.38-1.35-1-2.29-2-2.21-2.53.24-1.8,5.17-1.76,5.17-1.76s-3.5-1.16-2.12-3.38,5,.53,5,.53-2.19-3.88-1.11-6.1,5.69,2.54,5.91,2.77c-.1-.15-1.93-2.9-.86-5.75s8.09,2.69,8.09,2.69-2.92-4.67-1-5.66,3.78,2.68,3.92,2.95c-.07-.39-1.11-6.21,1-5.58s2.49,5.52,2.51,5.78c.07-.15,1.81-4.42,3.64-2.73.8.75.69,2.06.3,3.29a14.86,14.86,0,0,1-1.49,3.16l1,1.93c-.35.35-.72.69-1.08,1a14.87,14.87,0,0,0-2.2,2.32C246.29,277.35,249.71,280.52,246.77,281.15Z" style="fill:#fff;isolation:isolate;opacity:0.6000000000000001"></path><path d="M246.77,281.15c-3,.63-7-1.62-8.08.85s2.75,5.74-2,4.95-6.73-6-8.68-4.93l-.63.35c-.57-1.19-.94-2.35-.51-2.78,1-1,1.52,1.34,1.57,1.56,0-.3-.1-3.23,1.88-3.83s1.41,2.88,1.41,2.88c.94-.92,3.23-.19,3.23-.19s-2.64-1.53-2.34-3.39,4.44,0,4.9.22c-.37-.21-3.06-1.84-2.52-3.57s4.38,1.51,4.38,1.51-4.21-4.81-2.68-7.26,6.16,5,6.16,5-.08-5.2.78-4.62,1.89,3.31,1.89,3.31,0-3.46,2.48-2.45c1.11.45,1.72,2.16,2,3.91a14.87,14.87,0,0,0-2.2,2.32C246.29,277.35,249.71,280.52,246.77,281.15Z" style="fill:#fff;isolation:isolate;opacity:0.7000000000000001"></path><path d="M242.83,277.14a1.22,1.22,0,1,0,0-1.73A1.22,1.22,0,0,0,242.83,277.14Z" style="fill:#fff"></path><path d="M230.46,276.09a.94.94,0,1,0,1.33-1.34.94.94,0,0,0-1.33,1.34Z" style="fill:#fff"></path><path d="M242.14,267.09a.37.37,0,0,0,.52,0,.35.35,0,0,0,0-.51.36.36,0,0,0-.51,0A.37.37,0,0,0,242.14,267.09Z" style="fill:#fff"></path><path d="M234.77,284.71a.81.81,0,0,0,1.15,0,.82.82,0,0,0,0-1.16.83.83,0,0,0-1.16,0A.82.82,0,0,0,234.77,284.71Z" style="fill:#fff"></path><path d="M261.47,309.67,256.91,304l-3.58,7.69s4.06,2.77,8.4,1Z" style="fill:#ebb376"></path><polygon points="249.94 302.53 248.35 308.73 253.33 311.73 256.91 304.04 249.94 302.53" style="fill:#ebb376"></polygon><path d="M296.65,297.25c-3.53,7.8-8.89,17.21-17.65,20.22-7.19,1.82-14.52-.76-20.31-4.93a2,2,0,0,1,1.85-3.47c5.45,1.79,12.63,3.78,17.81.61,4.79-3.46,8.38-10.21,11-15.65a4,4,0,0,1,7.31,3.22Z" style="fill:#e9b376"></path><path d="M293.56,288.75c6.78,4.68,6.71,11.06-1.33,23.18l-12.84-7.45a43.19,43.19,0,0,0,7-9.4C289.75,289.13,293.56,288.75,293.56,288.75Z" style="fill:#198754"></path><path d="M293.56,288.75c6.78,4.68,6.71,11.06-1.33,23.18l-12.84-7.45a43.19,43.19,0,0,0,7-9.4C289.75,289.13,293.56,288.75,293.56,288.75Z" style="fill:#fff;isolation:isolate;opacity:0.6000000000000001"></path><path d="M236.24,300.47l-4.17-5.92,8.36-1.35s1.56,4.65-1.31,8.36Z" style="fill:#ebb376"></path><polygon points="232.49 287.44 238.89 287.59 240.43 293.2 232.07 294.55 232.49 287.44" style="fill:#ebb376"></polygon></g></g><g id="freepik--character-1--inject-65"><path d="M181.28,223.05c-9.83-1.33-18.24,2-20.46,13.61s3.65,17.63,1.74,19.73a4.79,4.79,0,0,1-3.81,1.87s8.35,10.63,30.68,5.63c0,0-1.7-3.8,0-5.27s11.61-18.14,6.38-26S185.56,223.62,181.28,223.05Z" style="fill:#263238"></path><path d="M198,275.92c3,5,6.39,10.95,11.19,14.21l.18.09.09.06s.11.06,0,0a5.19,5.19,0,0,0-5.82,3,3.09,3.09,0,0,0-.21.82c0,.14,0,.26.05,0,0-3.87-1.47-8.14-2.46-12-1.25-4.45-2.66-9-4-13.51a3.62,3.62,0,0,1,6.49-3,111,111,0,0,1,10.26,19.59c1.54,4.23,3.57,9.56,1.14,14.06-2,3.63-6.52,4.72-10.26,3.21a23.09,23.09,0,0,1-3-1.29c-7.44-4.18-12.17-10.59-16.07-17.77a7.35,7.35,0,0,1,2.75-10.67,7.25,7.25,0,0,1,9.66,3.2Z" style="fill:#198754"></path><path d="M201.34,268.21l5.64-6.7L197.05,259s-2.36,5.44.71,10.2Z" style="fill:#ffc3bd"></path><polygon points="207.2 252.9 199.48 252.42 197.05 259.02 206.98 261.51 207.2 252.9" style="fill:#ffc3bd"></polygon><polygon points="156.12 397.85 151.53 410.3 139.29 409.4 130 408.71 118.52 407.86 124.03 402.48 133.09 401.17 141.81 399.92 156.12 397.85" style="fill:#ffc3bd"></polygon><polygon points="141.81 399.92 139.29 409.4 130 408.71 133.09 401.17 141.81 399.92" style="isolation:isolate;opacity:0.2"></polygon><path d="M123,409.28a.23.23,0,0,1,.11,0h.09l.08,0h0a.3.3,0,0,1,.08.08c.07.11,1.49,2.22,1.13,3.69a1.59,1.59,0,0,1-.81,1.05,1,1,0,0,1-1.11,0c-.42-.35-.42-1.26-.29-2.2a4.12,4.12,0,0,1-1.57,1.71,1.11,1.11,0,0,1-.89,0,1,1,0,0,1-.74-.86,1.51,1.51,0,0,1,.34-.88A13.08,13.08,0,0,1,123,409.28Zm-.42.87c-1.42.84-3,2-3,2.66,0,.06,0,.23.4.38a.6.6,0,0,0,.47,0,2.62,2.62,0,0,0,.9-.85A11.88,11.88,0,0,0,122.62,410.15Zm1.38,2.78a4.49,4.49,0,0,0-.74-2.74c-.44,1.58-.66,3.24-.3,3.54.11.09.36,0,.5-.1a1,1,0,0,0,.37-.31A1,1,0,0,0,124,412.93Z" style="fill:#198754"></path><g style="opacity:0.5"><path d="M123,409.28a.23.23,0,0,1,.11,0h.09l.08,0h0a.3.3,0,0,1,.08.08c.07.11,1.49,2.22,1.13,3.69a1.59,1.59,0,0,1-.81,1.05,1,1,0,0,1-1.11,0c-.42-.35-.42-1.26-.29-2.2a4.12,4.12,0,0,1-1.57,1.71,1.11,1.11,0,0,1-.89,0,1,1,0,0,1-.74-.86,1.51,1.51,0,0,1,.34-.88A13.08,13.08,0,0,1,123,409.28Zm-.42.87c-1.42.84-3,2-3,2.66,0,.06,0,.23.4.38a.6.6,0,0,0,.47,0,2.62,2.62,0,0,0,.9-.85A11.88,11.88,0,0,0,122.62,410.15Zm1.38,2.78a4.49,4.49,0,0,0-.74-2.74c-.44,1.58-.66,3.24-.3,3.54.11.09.36,0,.5-.1a1,1,0,0,0,.37-.31A1,1,0,0,0,124,412.93Z" style="fill:#fff"></path></g><path d="M129.56,401c.66.52-6,8.46-6,8.46s-9,1.31-13.78,5.43-5.76-.85-1.69-6.41l10.07-13.77C121.09,390.71,122.65,395.64,129.56,401Z" style="fill:#263238"></path><path d="M129.56,401c.66.52-6,8.46-6,8.46s-9,1.31-13.78,5.43-5.76-.85-1.69-6.41l10.07-13.77C121.09,390.71,122.65,395.64,129.56,401Z" style="fill:#fff;isolation:isolate;opacity:0.1"></path><path d="M236.68,394.5c-1.84,10-8.93,13.5-16.17,14.36-8.82,1.06-87,1.64-87,1.64l3.25-12.25,68.39-7.5L165.82,372.4s-36-2.61-35-28.37a102.53,102.53,0,0,1,5.87-28.72c.25-.72.52-1.44.77-2.15l36.74-4.69.39,1.75,3,13.13,4.95,10.91S240.62,373.28,236.68,394.5Z" style="fill:#263238"></path><path d="M184.35,335.48l-45.94,26.44c10.28,9.23,27.41,10.48,27.41,10.48l39.31,18.35-68.39,7.5-3.25,12.25s78.2-.58,87-1.64c7.24-.86,14.33-4.38,16.17-14.36C240.21,375.5,194.05,342.23,184.35,335.48Z" style="isolation:isolate;opacity:0.2"></path><polygon points="224.14 375.82 222.27 379.65 214.5 395.4 208.2 408.2 202.2 407.91 205.62 393.9 209.51 377.89 210.38 374.33 224.14 375.82" style="fill:#ffc3bd"></polygon><polygon points="222.27 379.65 214.5 395.4 205.62 393.9 209.51 377.89 222.27 379.65" style="isolation:isolate;opacity:0.2"></polygon><path d="M195.14,272.84s-2,28.28-17.52,50.51c0,0-34.64-4.33-42-6.49,4.59-13.57,7.34-22.63,9.24-48.08.46-6.15,6-9.68,12.08-8.59a70.93,70.93,0,0,1,17.56,3.44C181.89,266,195.14,272.84,195.14,272.84Z" style="fill:#198754"></path><path d="M135.2,338.63s-4.19,26.23,15,28.85c31.54,4.3,60.94-26.8,64.58-26.73s-10.49,50.54-10.49,50.54l14.12,2.11s25.5-62.17,19.31-75.56S157.54,339.07,135.2,338.63Z" style="fill:#263238"></path><path d="M212,403.81a.27.27,0,0,1-.08-.07h0l0-.07h0a.29.29,0,0,1,0-.09h0a.37.37,0,0,1,0-.11c.05-.13.91-2.52,2.3-3.1a1.61,1.61,0,0,1,1.34,0c.47.22.7.51.68.86,0,.55-.77,1.09-1.61,1.54a4.33,4.33,0,0,1,2.32.25,1.09,1.09,0,0,1,.55.7,1,1,0,0,1-.25,1.1,1.39,1.39,0,0,1-.91.25A13.26,13.26,0,0,1,212,403.81Zm.95-.18c1.52.65,3.41,1.21,3.9.81,0,0,.17-.14.07-.54a.6.6,0,0,0-.3-.37,2.64,2.64,0,0,0-1.22-.22A12.07,12.07,0,0,0,212.91,403.63Zm1.42-2.76a4.55,4.55,0,0,0-1.76,2.23c1.52-.59,3-1.39,3-1.86,0-.14-.23-.27-.37-.34a1.05,1.05,0,0,0-.48-.11A1.25,1.25,0,0,0,214.33,400.87Z" style="fill:#198754"></path><g style="opacity:0.5"><path d="M212,403.81a.27.27,0,0,1-.08-.07h0l0-.07h0a.29.29,0,0,1,0-.09h0a.37.37,0,0,1,0-.11c.05-.13.91-2.52,2.3-3.1a1.61,1.61,0,0,1,1.34,0c.47.22.7.51.68.86,0,.55-.77,1.09-1.61,1.54a4.33,4.33,0,0,1,2.32.25,1.09,1.09,0,0,1,.55.7,1,1,0,0,1-.25,1.1,1.39,1.39,0,0,1-.91.25A13.26,13.26,0,0,1,212,403.81Zm.95-.18c1.52.65,3.41,1.21,3.9.81,0,0,.17-.14.07-.54a.6.6,0,0,0-.3-.37,2.64,2.64,0,0,0-1.22-.22A12.07,12.07,0,0,0,212.91,403.63Zm1.42-2.76a4.55,4.55,0,0,0-1.76,2.23c1.52-.59,3-1.39,3-1.86,0-.14-.23-.27-.37-.34a1.05,1.05,0,0,0-.48-.11A1.25,1.25,0,0,0,214.33,400.87Z" style="fill:#fff"></path></g><path d="M201.39,403.48c0-.84,10.35-.19,10.35-.19s6.36,6.45,12.53,7.9,2.73,5.15-4.17,5.16H203C198.14,416.37,201.2,412.19,201.39,403.48Z" style="fill:#263238"></path><path d="M201.39,403.48c0-.84,10.35-.19,10.35-.19s6.36,6.45,12.53,7.9,2.73,5.15-4.17,5.16H203C198.14,416.37,201.2,412.19,201.39,403.48Z" style="fill:#fff;isolation:isolate;opacity:0.2"></path><path d="M195.14,272.84s-2,28.28-17.52,50.51c0,0-34.64-4.33-42-6.49,4.59-13.57,7.34-22.63,9.24-48.08.46-6.15,6-9.68,12.08-8.59a70.93,70.93,0,0,1,17.56,3.44C181.89,266,195.14,272.84,195.14,272.84Z" style="isolation:isolate;opacity:0.2"></path><path d="M183.82,258.6a33.45,33.45,0,0,0-3.21,3.54,10.21,10.21,0,0,0-2.44,5,2.61,2.61,0,0,0,.67,2.37,4.11,4.11,0,0,1-.32,1.06c-1.34,3-5.9,2.73-5.9,2.73-6.76-6.6-6.59-11.5-6.59-11.5a9,9,0,0,0,5.22-2.4,13.71,13.71,0,0,0,2.69-3.45,21,21,0,0,0,2.15-5.79Z" style="fill:#ffc3bd"></path><path d="M183.82,258.6a33.45,33.45,0,0,0-3.21,3.54,10.21,10.21,0,0,0-2.44,5,2.61,2.61,0,0,0,.67,2.37,4.11,4.11,0,0,1-.32,1.06c-3.66-2.74-6.05-7.62-7.27-11.17a13.71,13.71,0,0,0,2.69-3.45,21,21,0,0,0,2.15-5.79Z" style="isolation:isolate;opacity:0.2"></path><path d="M179.61,254.77s-12.71,3.1-14.26-14.36,24.79-24.2,28-8.78S179.61,254.77,179.61,254.77Z" style="fill:#263238"></path><path d="M197.65,253.81a11.15,11.15,0,0,1-12.07,8.59,14.44,14.44,0,0,1-9.49-4.93A20.68,20.68,0,0,1,174,254.8c-2.79-4.28-2.85-8.55-3.25-16.73a12.65,12.65,0,0,1,18.48-12.16C198.71,230.46,199.85,245.13,197.65,253.81Z" style="fill:#ffc3bd"></path><path d="M180,232.28c-6.25,6.1,3.54,15.48-7.28,13.51s-4.27-16.73,2.68-19.32S180,232.28,180,232.28Z" style="fill:#263238"></path><path d="M175.43,226.59c.45,6.74,1.27,8.59,7.35,7.62-1.17-1.87-.47-4.61-.47-4.61a6.56,6.56,0,0,0,2.76,4.05,23.88,23.88,0,0,1,5.06-.81,6.46,6.46,0,0,1,.11-2.87,6.16,6.16,0,0,0,1.83,3,16.71,16.71,0,0,1,5.13,1.65C198.13,227.69,187.46,218.63,175.43,226.59Z" style="fill:#263238"></path><path d="M185.78,242.06c0,.83.43,1.53,1,1.56s.95-.61.95-1.44-.44-1.53-1-1.56S185.78,241.23,185.78,242.06Z" style="fill:#263238"></path><path d="M194.41,242.06c0,.83.43,1.53,1,1.56s.95-.61.95-1.44-.44-1.53-1-1.56S194.41,241.23,194.41,242.06Z" style="fill:#263238"></path><path d="M195.12,240.65l1.93-.45S196.07,241.69,195.12,240.65Z" style="fill:#263238"></path><path d="M192.92,243.75a24.33,24.33,0,0,0,2.89,5.48c-1.05,1-2.86.37-2.86.37Z" style="fill:#d4827d"></path><path d="M168.57,247.21a6.78,6.78,0,0,0,3.58,4.14c2.16.9,3.48-1.52,3.09-4.19-.35-2.39-1.89-5.75-4.15-5.5S167.75,244.8,168.57,247.21Z" style="fill:#ffc3bd"></path><path d="M183.65,237a.45.45,0,0,0,.35-.1,3.52,3.52,0,0,1,3.28-.76.45.45,0,0,0,.58-.31.53.53,0,0,0-.33-.62,4.44,4.44,0,0,0-4.16.92.48.48,0,0,0,0,.68A.47.47,0,0,0,183.65,237Z" style="fill:#263238"></path><path d="M198.53,238.21a.5.5,0,0,0,.34-.06.48.48,0,0,0,.11-.67,5.07,5.07,0,0,0-3.81-2.38.45.45,0,0,0-.46.47.54.54,0,0,0,.5.5,4.11,4.11,0,0,1,3,1.92A.58.58,0,0,0,198.53,238.21Z" style="fill:#263238"></path><path d="M186.49,240.65l1.93-.45S187.44,241.69,186.49,240.65Z" style="fill:#263238"></path><path d="M192.54,252.46a32.16,32.16,0,0,0-2.34,3.93c-.26-.07-.52-.15-.77-.24-3.48-1.13-4.72-2.8-5-4.31a4.65,4.65,0,0,1,.12-2.23,4.42,4.42,0,0,1,.49-1.18c1.48,1.7,4.65,3,6.36,3.62C192.08,252.32,192.54,252.46,192.54,252.46Z" style="fill:#263238"></path><path d="M191.36,252.05l-.72,1.15c-3.27-1.07-5.43-2.27-6.13-3.59a4.42,4.42,0,0,1,.49-1.18C186.48,250.13,189.65,251.43,191.36,252.05Z" style="fill:#fff"></path><path d="M189.43,256.15c-3.48-1.13-4.72-2.8-5-4.31a11.71,11.71,0,0,1,3.61,2A4.47,4.47,0,0,1,189.43,256.15Z" style="fill:#de5753"></path><path d="M187.73,246.88c-2,0-3.69-2.11-3.69-4.69s1.65-4.7,3.69-4.7,3.68,2.11,3.68,4.7S189.76,246.88,187.73,246.88Zm0-8.79c-1.7,0-3.09,1.84-3.09,4.1s1.39,4.09,3.09,4.09,3.08-1.84,3.08-4.09S189.43,238.09,187.73,238.09Z" style="fill:#263238"></path><path d="M196.89,246.88c-2,0-3.68-2.11-3.68-4.69s1.65-4.7,3.68-4.7,3.69,2.11,3.69,4.7S198.92,246.88,196.89,246.88Zm0-8.79c-1.7,0-3.08,1.84-3.08,4.1s1.38,4.09,3.08,4.09,3.09-1.84,3.09-4.09S198.59,238.09,196.89,238.09Z" style="fill:#263238"></path><path d="M191.34,242.38l-.46-.39a2.33,2.33,0,0,1,1.64-.83,1.65,1.65,0,0,1,1.24.86l-.51.33a1.06,1.06,0,0,0-.77-.59A1.75,1.75,0,0,0,191.34,242.38Z" style="fill:#263238"></path><rect x="174.62" y="241.88" width="9.72" height="0.6" style="fill:#263238"></rect><path d="M160.71,265.89c1.91,4.82,4.11,10.15,6.38,14.75,1.89,3.71,4,7.88,6.87,10.52,0,.06-.16,0-.25,0l-.3-.05a4.15,4.15,0,0,0-1.58.11c-1.14.34-1.5.87-1.51.93s.19-.11.39-.42a32.51,32.51,0,0,0,2.9-8.33c1.29-5.23,2.24-10.86,3.22-16.35a3.61,3.61,0,0,1,7.14.2c.37,3,.54,5.88.63,8.85.15,9.67-.14,31.07-15,27.42-11-3.87-18.81-22.5-22.51-32.76-2.72-9.06,10-13.56,13.61-4.83Z" style="fill:#198754"></path><polygon points="196.18 265.65 204.37 264.61 205.68 269.22 197.59 270.96 196.18 265.65" style="fill:#198754"></polygon><polygon points="196.18 265.65 204.37 264.61 205.68 269.22 197.59 270.96 196.18 265.65" style="isolation:isolate;opacity:0.2"></polygon><path d="M185.58,262.4a14.44,14.44,0,0,1-9.49-4.93A20.68,20.68,0,0,1,174,254.8v-3.86l8.7.27S185.36,258.2,185.58,262.4Z" style="isolation:isolate;opacity:0.2"></path><path d="M178,267.21l-4.58-7.45,10.2-1s1.52,5.74-2.23,10Z" style="fill:#ffc3bd"></path><polygon points="174.48 251.21 182.18 251.88 183.61 258.76 173.41 259.76 174.48 251.21" style="fill:#ffc3bd"></polygon><polygon points="176.31 265.54 183.91 264.82 184.31 269.43 176.31 269.81 176.31 265.54" style="fill:#198754"></polygon><polygon points="176.31 265.54 183.91 264.82 184.31 269.43 176.31 269.81 176.31 265.54" style="isolation:isolate;opacity:0.2"></polygon></g></svg>